<svg width="3802" height="534" viewBox="0 0 3802 534" fill="none" xmlns="http://www.w3.org/2000/svg">
<path d="M250.208 304.689C229.564 304.707 209.237 299.595 191.046 289.808C172.854 280.022 157.364 265.867 145.961 248.609L175.736 228.768C183.886 241.094 194.953 251.205 207.947 258.2C220.941 265.195 235.46 268.855 250.208 268.855C264.956 268.855 279.475 265.195 292.47 258.2C305.464 251.205 316.53 241.094 324.681 228.768L354.456 248.609C343.053 265.867 327.563 280.022 309.371 289.808C291.179 299.595 270.852 304.707 250.208 304.689Z" fill="#FAFAFA"/>
<path d="M321.696 107.537C314.627 107.537 307.716 109.64 301.838 113.579C295.96 117.517 291.379 123.116 288.673 129.666C285.968 136.216 285.26 143.423 286.639 150.376C288.018 157.33 291.423 163.717 296.421 168.73C301.42 173.743 307.789 177.157 314.723 178.54C321.657 179.923 328.844 179.213 335.375 176.5C341.906 173.787 347.489 169.193 351.416 163.298C355.344 157.403 357.44 150.473 357.44 143.383C357.488 138.663 356.596 133.98 354.817 129.609C353.038 125.238 350.406 121.268 347.078 117.93C343.749 114.591 339.79 111.953 335.431 110.168C331.073 108.384 326.404 107.489 321.696 107.537Z" fill="#FAFAFA"/>
<path d="M178.72 107.537C171.651 107.537 164.74 109.64 158.862 113.579C152.984 117.517 148.402 123.116 145.697 129.666C142.992 136.216 142.284 143.423 143.663 150.376C145.042 157.33 148.446 163.717 153.445 168.73C158.444 173.743 164.813 177.157 171.747 178.54C178.681 179.923 185.867 179.213 192.399 176.5C198.93 173.787 204.513 169.193 208.44 163.298C212.368 157.403 214.464 150.473 214.464 143.383C214.512 138.663 213.62 133.98 211.841 129.609C210.061 125.238 207.43 121.268 204.102 117.93C200.773 114.591 196.813 111.953 192.455 110.168C188.097 108.384 183.427 107.489 178.72 107.537Z" fill="#FAFAFA"/>
<path d="M281.234 501.841L250.208 483.918L321.696 358.458H428.928C433.624 358.465 438.276 357.543 442.615 355.744C446.955 353.945 450.899 351.305 454.219 347.975C457.54 344.645 460.172 340.69 461.966 336.338C463.76 331.986 464.68 327.321 464.672 322.612V71.6916C464.68 66.9823 463.76 62.3178 461.966 57.9656C460.172 53.6134 457.54 49.659 454.219 46.329C450.899 42.999 446.955 40.3589 442.615 38.56C438.276 36.7611 433.624 35.8387 428.928 35.8458H71.4881C66.7921 35.8387 62.1409 36.7611 57.8011 38.56C53.4612 40.3589 49.518 42.999 46.1975 46.329C42.8769 49.659 40.2443 53.6134 38.4505 57.9656C36.6567 62.3178 35.737 66.9823 35.744 71.6916V322.612C35.737 327.321 36.6567 331.986 38.4505 336.338C40.2443 340.69 42.8769 344.645 46.1975 347.975C49.518 351.305 53.4612 353.945 57.8011 355.744C62.1409 357.543 66.7921 358.465 71.4881 358.458H232.336V394.304H71.4881C52.5283 394.304 34.345 386.751 20.9384 373.306C7.53176 359.861 2.23533e-06 341.626 2.23533e-06 322.612V71.6916C-0.0023458 62.2763 1.84514 52.9527 5.43693 44.2536C9.02871 35.5545 14.2944 27.6504 20.9331 20.9927C27.5719 14.3351 35.4536 9.05441 44.128 5.4524C52.8024 1.8504 62.0995 -0.00235248 71.4881 2.24169e-06H428.928C438.317 -0.00235248 447.614 1.8504 456.289 5.4524C464.963 9.05441 472.845 14.3351 479.483 20.9927C486.122 27.6504 491.388 35.5545 494.98 44.2536C498.571 52.9527 500.419 62.2763 500.417 71.6916V322.612C500.417 341.626 492.885 359.861 479.478 373.306C466.072 386.751 447.888 394.304 428.928 394.304H342.517L281.234 501.841Z" fill="#FAFAFA"/>
<path d="M879.657 439.367L797.155 100.852V439.367H753.478V60.8354H830.048L913.089 399.351V60.8354H956.766V439.367H879.657Z" fill="#FAFAFA"/>
<path d="M1122.45 463.16C1118.14 479.383 1113.65 492.361 1108.97 502.095C1104.3 512.189 1097.65 519.94 1089.02 525.348C1080.75 531.116 1069.61 534 1055.59 534C1048.04 534 1037.79 532.918 1024.85 530.755V491.28C1034.92 492.722 1044.27 493.443 1052.89 493.443C1062.96 493.443 1070.15 485.332 1074.46 469.109L1083.09 439.367H1072.3L988.725 168.987H1038.33L1100.88 392.321L1153.73 168.987H1200.64L1122.45 463.16Z" fill="#FAFAFA"/>
<path d="M1388.98 439.367C1384.31 439.367 1379.1 437.925 1373.35 435.041C1367.95 432.157 1363.28 428.191 1359.33 423.144C1351.06 433.959 1340.09 439.367 1326.43 439.367H1289.23C1261.91 439.367 1241.95 433.959 1229.37 423.144C1217.15 411.969 1211.04 393.042 1211.04 366.365V355.549C1211.04 299.671 1237.28 271.732 1289.77 271.732H1345.85V244.694C1345.85 233.518 1342.43 224.866 1335.6 218.737C1328.77 212.609 1318.7 209.544 1305.4 209.544H1232.61V168.987H1300.01C1331.29 168.987 1354.29 175.837 1369.03 189.536C1384.13 203.235 1391.68 225.226 1391.68 255.509V385.291C1391.68 390.699 1393.66 394.845 1397.61 397.729C1401.92 400.252 1408.93 401.514 1418.64 401.514V439.367H1388.98ZM1321.04 398.81C1331.83 398.81 1338.66 396.287 1341.53 391.239C1344.41 386.192 1345.85 379.703 1345.85 371.772V312.289H1289.23C1279.88 312.289 1272.15 315.353 1266.04 321.481C1259.93 327.61 1256.87 335.361 1256.87 344.734V371.772C1256.87 381.145 1259.03 387.995 1263.34 392.321C1267.66 396.647 1274.49 398.81 1283.83 398.81H1321.04Z" fill="#FAFAFA"/>
<path d="M1450.52 168.987H1493.66V181.966C1504.8 173.313 1519.18 168.987 1536.8 168.987H1540.03C1572.74 168.987 1596.11 177.279 1610.13 193.862C1623.43 177.279 1641.94 168.987 1665.67 168.987H1668.91C1698.02 168.987 1719.59 175.837 1733.61 189.536C1747.99 203.235 1755.18 225.226 1755.18 255.509V439.367H1709.35V244.694C1709.35 233.878 1706.11 225.407 1699.64 219.278C1693.53 212.789 1685.08 209.544 1674.3 209.544H1660.28C1649.13 209.544 1640.69 212.969 1634.93 219.819C1629.54 226.308 1626.49 233.338 1625.77 240.908V439.367H1579.93V244.694C1579.93 233.878 1576.88 225.407 1570.77 219.278C1564.66 212.789 1556.21 209.544 1545.42 209.544H1531.4C1519.9 209.544 1511.09 212.609 1504.98 218.737C1499.23 224.505 1496.35 230.814 1496.35 237.664V439.367H1450.52V168.987Z" fill="#FAFAFA"/>
<path d="M1965 439.367C1960.33 439.367 1955.12 437.925 1949.37 435.041C1943.97 432.157 1939.3 428.191 1935.35 423.144C1927.08 433.959 1916.11 439.367 1902.45 439.367H1865.25C1837.93 439.367 1817.98 433.959 1805.39 423.144C1793.17 411.969 1787.06 393.042 1787.06 366.365V355.549C1787.06 299.671 1813.3 271.732 1865.79 271.732H1921.87V244.694C1921.87 233.518 1918.45 224.866 1911.62 218.737C1904.79 212.609 1894.73 209.544 1881.42 209.544H1808.63V168.987H1876.03C1907.31 168.987 1930.31 175.837 1945.05 189.536C1960.15 203.235 1967.7 225.226 1967.7 255.509V385.291C1967.7 390.699 1969.68 394.845 1973.63 397.729C1977.95 400.252 1984.96 401.514 1994.66 401.514V439.367H1965ZM1897.06 398.81C1907.85 398.81 1914.68 396.287 1917.55 391.239C1920.43 386.192 1921.87 379.703 1921.87 371.772V312.289H1865.25C1855.9 312.289 1848.17 315.353 1842.06 321.481C1835.95 327.61 1832.89 335.361 1832.89 344.734V371.772C1832.89 381.145 1835.05 387.995 1839.37 392.321C1843.68 396.647 1850.51 398.81 1859.86 398.81H1897.06Z" fill="#FAFAFA"/>
<path d="M2026.54 168.987H2069.68V181.966C2080.82 173.313 2095.2 168.987 2112.82 168.987H2126.84C2155.95 168.987 2177.52 175.837 2191.54 189.536C2205.92 203.235 2213.11 225.226 2213.11 255.509V439.367H2167.28V244.694C2167.28 233.878 2164.04 225.407 2157.57 219.278C2151.46 212.789 2143.01 209.544 2132.23 209.544H2107.42C2095.56 209.544 2086.75 212.789 2081 219.278C2075.25 225.407 2072.38 232.076 2072.38 239.286V439.367H2026.54V168.987Z" fill="#FAFAFA"/>
<path d="M2358.36 439.367C2327.09 439.367 2303 431.796 2286.11 416.655C2269.57 401.153 2261.3 378.081 2261.3 347.438V152.765C2261.3 122.122 2269.57 99.2294 2286.11 84.0881C2303 68.5863 2327.09 60.8354 2358.36 60.8354H2424.15V101.933H2352.97C2339.67 101.933 2328.89 105.899 2320.62 113.83C2312.35 121.761 2308.22 131.314 2308.22 142.49V357.712C2308.22 368.888 2312.35 378.442 2320.62 386.373C2328.89 394.304 2339.67 398.269 2352.97 398.269H2424.15V439.367H2358.36Z" fill="#FAFAFA"/>
<path d="M2590.44 426.93C2578.58 435.221 2564.2 439.367 2547.3 439.367H2539.75C2510.63 439.367 2488.88 432.517 2474.51 418.818C2460.49 405.119 2453.48 383.128 2453.48 352.846V168.987H2499.31V363.661C2499.31 374.476 2502.37 383.128 2508.48 389.617C2514.95 395.746 2523.57 398.81 2534.36 398.81H2552.69C2564.2 398.81 2572.64 395.926 2578.04 390.158C2583.79 384.39 2587.02 377.901 2587.74 370.691V168.987H2633.58V439.367H2590.44V426.93Z" fill="#FAFAFA"/>
<path d="M2687.31 168.987H2730.45V183.588C2742.31 173.854 2756.69 168.987 2773.59 168.987H2812.95V212.248H2768.19C2756.33 212.248 2747.52 216.214 2741.77 224.145C2736.02 232.076 2733.15 239.827 2733.15 247.397V439.367H2687.31V168.987Z" fill="#FAFAFA"/>
<path d="M2834.2 60.8354H2880.03V179.803C2890.82 172.592 2904.3 168.987 2920.47 168.987H2934.49C2963.61 168.987 2985.18 175.837 2999.2 189.536C3013.58 203.235 3020.77 225.226 3020.77 255.509V439.367H2974.93V244.694C2974.93 233.878 2971.7 225.407 2965.23 219.278C2959.12 212.789 2950.67 209.544 2939.88 209.544H2915.08C2903.58 209.544 2894.77 212.609 2888.66 218.737C2882.91 224.505 2880.03 230.814 2880.03 237.664V439.367H2834.2V60.8354Z" fill="#FAFAFA"/>
<path d="M3230.73 439.367C3226.05 439.367 3220.84 437.925 3215.09 435.041C3209.7 432.157 3205.02 428.191 3201.07 423.144C3192.8 433.959 3181.84 439.367 3168.18 439.367H3130.97C3103.65 439.367 3083.7 433.959 3071.12 423.144C3058.89 411.969 3052.78 393.042 3052.78 366.365V355.549C3052.78 299.671 3079.02 271.732 3131.51 271.732H3187.59V244.694C3187.59 233.518 3184.17 224.866 3177.34 218.737C3170.51 212.609 3160.45 209.544 3147.15 209.544H3074.35V168.987H3141.75C3173.03 168.987 3196.04 175.837 3210.78 189.536C3225.87 203.235 3233.42 225.226 3233.42 255.509V385.291C3233.42 390.699 3235.4 394.845 3239.35 397.729C3243.67 400.252 3250.68 401.514 3260.38 401.514V439.367H3230.73ZM3162.78 398.81C3173.57 398.81 3180.4 396.287 3183.27 391.239C3186.15 386.192 3187.59 379.703 3187.59 371.772V312.289H3130.97C3121.62 312.289 3113.89 315.353 3107.78 321.481C3101.67 327.61 3098.62 335.361 3098.62 344.734V371.772C3098.62 381.145 3100.77 387.995 3105.09 392.321C3109.4 396.647 3116.23 398.81 3125.58 398.81H3162.78Z" fill="#FAFAFA"/>
<path d="M3351.58 439.367C3333.24 439.367 3319.22 433.419 3309.52 421.522C3299.81 409.625 3294.96 393.943 3294.96 374.476V209.544H3259.91V168.987H3294.96V104.096H3340.79V168.987H3403.34V209.544H3340.79V377.18C3340.79 385.111 3342.77 390.699 3346.72 393.943C3350.68 397.188 3356.79 398.81 3365.06 398.81H3403.34V439.367H3351.58Z" fill="#FAFAFA"/>
<path d="M3418.95 439.367V385.291H3472.87V439.367H3418.95Z" fill="#FAFAFA"/>
<path d="M3515.94 109.504V60.8354H3567.16V109.504H3515.94ZM3518.63 439.367V168.987H3564.47V439.367H3518.63Z" fill="#FAFAFA"/>
<path d="M3758.86 426.93C3747 435.221 3732.62 439.367 3715.72 439.367H3704.4C3672.77 439.367 3649.58 432.698 3634.84 419.359C3620.1 405.66 3612.73 383.489 3612.73 352.846V255.509C3612.73 225.226 3620.1 203.235 3634.84 189.536C3649.94 175.837 3673.13 168.987 3704.4 168.987H3756.17V60.8354H3802V439.367H3758.86V426.93ZM3721.12 398.81C3732.98 398.81 3741.79 395.746 3747.54 389.617C3753.29 383.128 3756.17 376.278 3756.17 369.068V209.544H3699.01C3685.71 209.544 3675.64 212.609 3668.81 218.737C3661.98 224.866 3658.57 233.518 3658.57 244.694V363.661C3658.57 374.836 3661.98 383.489 3668.81 389.617C3675.64 395.746 3685.71 398.81 3699.01 398.81H3721.12Z" fill="#FAFAFA"/>
</svg>
