<svg width="12001" height="2290" viewBox="0 0 12001 2290" fill="none" xmlns="http://www.w3.org/2000/svg">
<path d="M1057.06 1304.51C969.844 1304.58 883.969 1282.69 807.114 1240.79C730.258 1198.89 664.817 1138.29 616.643 1064.4L742.433 979.455C776.868 1032.23 823.619 1075.52 878.517 1105.46C933.415 1135.41 994.753 1151.08 1057.06 1151.08C1119.37 1151.08 1180.7 1135.41 1235.6 1105.46C1290.5 1075.52 1337.25 1032.23 1371.69 979.455L1497.48 1064.4C1449.3 1138.29 1383.86 1198.89 1307.01 1240.79C1230.15 1282.69 1144.27 1304.58 1057.06 1304.51Z" fill="#FAFAFA"/>
<path d="M1359.08 460.42C1329.21 460.42 1300.01 469.421 1275.18 486.284C1250.35 503.148 1230.99 527.117 1219.56 555.16C1208.13 583.203 1205.14 614.061 1210.97 643.831C1216.8 673.601 1231.18 700.947 1252.3 722.41C1273.42 743.874 1300.32 758.491 1329.62 764.412C1358.91 770.334 1389.27 767.295 1416.87 755.679C1444.46 744.063 1468.04 724.392 1484.64 699.154C1501.23 673.916 1510.09 644.244 1510.09 613.89C1510.29 593.679 1506.52 573.63 1499 554.918C1491.49 536.205 1480.37 519.205 1466.31 504.913C1452.24 490.621 1435.52 479.324 1417.1 471.684C1398.69 464.044 1378.96 460.215 1359.08 460.42Z" fill="#FAFAFA"/>
<path d="M755.043 460.42C725.176 460.42 695.98 469.421 671.147 486.284C646.314 503.148 626.959 527.117 615.529 555.16C604.1 583.203 601.109 614.061 606.936 643.831C612.763 673.601 627.145 700.947 648.264 722.41C669.383 743.874 696.29 758.491 725.583 764.412C754.875 770.334 785.238 767.295 812.831 755.679C840.425 744.063 864.009 724.392 880.602 699.154C897.195 673.916 906.051 644.244 906.051 613.89C906.253 593.679 902.485 573.63 894.968 554.918C887.451 536.205 876.335 519.205 862.272 504.913C848.209 490.621 831.482 479.324 813.069 471.684C794.657 464.044 774.93 460.215 755.043 460.42Z" fill="#FAFAFA"/>
<path d="M1188.14 2148.59L1057.06 2071.85L1359.08 1534.71H1812.1C1831.94 1534.74 1851.59 1530.79 1869.93 1523.09C1888.26 1515.38 1904.92 1504.08 1918.95 1489.82C1932.98 1475.57 1944.1 1458.64 1951.68 1440C1959.26 1421.37 1963.14 1401.4 1963.11 1381.24V306.941C1963.14 286.779 1959.26 266.808 1951.68 248.175C1944.1 229.541 1932.98 212.611 1918.95 198.354C1904.92 184.096 1888.26 172.793 1869.93 165.091C1851.59 157.389 1831.94 153.44 1812.1 153.471H302.017C282.178 153.44 262.528 157.389 244.193 165.091C225.859 172.793 209.2 184.096 195.171 198.354C181.143 212.611 170.021 229.541 162.443 248.175C154.864 266.808 150.979 286.779 151.009 306.941V1381.24C150.979 1401.4 154.864 1421.37 162.443 1440C170.021 1458.64 181.143 1475.57 195.171 1489.82C209.2 1504.08 225.859 1515.38 244.193 1523.09C262.528 1530.79 282.178 1534.74 302.017 1534.71H981.556V1688.18H302.017C221.917 1688.18 145.098 1655.84 88.4588 1598.28C31.8196 1540.71 9.44353e-06 1462.64 9.44353e-06 1381.24V306.941C-0.00991034 266.63 7.79522 226.712 22.9695 189.468C38.1438 152.224 60.3898 118.383 88.4367 89.8785C116.484 61.3744 149.782 38.7657 186.428 23.344C223.075 7.92231 262.353 -0.0100719 302.017 9.59762e-06H1812.1C1851.77 -0.0100719 1891.04 7.92231 1927.69 23.344C1964.34 38.7657 1997.64 61.3744 2025.68 89.8785C2053.73 118.383 2075.98 152.224 2091.15 189.468C2106.32 226.712 2114.13 266.63 2114.12 306.941V1381.24C2114.12 1462.64 2082.3 1540.71 2025.66 1598.28C1969.02 1655.84 1892.2 1688.18 1812.1 1688.18H1447.04L1188.14 2148.59Z" fill="#FAFAFA"/>
<path d="M3233.64 1137.48L3012.09 231.519V1137.48H2894.79V124.424H3100.42L3323.42 1030.39V124.424H3440.71V1137.48H3233.64Z" fill="#FAFAFA"/>
<path d="M3876.87 1201.16C3865.29 1244.58 3853.22 1279.31 3840.67 1305.36C3828.12 1332.38 3810.26 1353.12 3787.1 1367.59C3764.89 1383.03 3734.97 1390.75 3697.32 1390.75C3677.04 1390.75 3649.53 1387.85 3614.78 1382.06V1276.42C3641.81 1280.28 3666.91 1282.21 3690.08 1282.21C3717.11 1282.21 3736.41 1260.5 3748 1217.08L3771.17 1137.48H3742.21L3517.76 413.87H3650.98L3818.95 1011.57L3960.86 413.87H4086.84L3876.87 1201.16Z" fill="#FAFAFA"/>
<path d="M4583.85 1137.48C4571.3 1137.48 4557.3 1133.62 4541.85 1125.91C4527.37 1118.19 4514.82 1107.57 4504.2 1094.07C4482 1123.01 4452.56 1137.48 4415.87 1137.48H4315.96C4242.59 1137.48 4189.01 1123.01 4155.22 1094.07C4122.4 1064.16 4105.99 1013.5 4105.99 942.108V913.163C4105.99 763.616 4176.46 688.843 4317.41 688.843H4468V616.481C4468 586.572 4458.83 563.416 4440.49 547.015C4422.15 530.613 4395.12 522.412 4359.4 522.412H4163.91V413.87H4344.92C4428.91 413.87 4490.69 432.201 4530.27 468.864C4570.82 505.527 4591.09 564.381 4591.09 645.426V992.761C4591.09 1007.23 4596.4 1018.33 4607.02 1026.05C4618.6 1032.8 4637.43 1036.18 4663.49 1036.18V1137.48H4583.85ZM4401.39 1028.94C4430.35 1028.94 4448.7 1022.19 4456.42 1008.68C4464.14 995.173 4468 977.806 4468 956.58V797.385H4315.96C4290.86 797.385 4270.1 805.586 4253.69 821.988C4237.28 838.39 4229.08 859.133 4229.08 884.218V956.58C4229.08 981.665 4234.87 999.997 4246.45 1011.57C4258.04 1023.15 4276.38 1028.94 4301.48 1028.94H4401.39Z" fill="#FAFAFA"/>
<path d="M4740.32 413.87H4856.17V448.603C4886.09 425.447 4924.71 413.87 4972.01 413.87H4980.7C5068.55 413.87 5131.3 436.06 5168.95 480.442C5204.67 436.06 5254.38 413.87 5318.1 413.87H5326.78C5404.98 413.87 5462.9 432.201 5500.55 468.864C5539.17 505.527 5558.47 564.381 5558.47 645.426V1137.48H5435.39V616.481C5435.39 587.537 5426.7 564.864 5409.32 548.462C5392.91 531.095 5370.23 522.412 5341.27 522.412H5303.62C5273.69 522.412 5251 531.577 5235.56 549.909C5221.08 567.276 5212.87 586.09 5210.94 606.351V1137.48H5087.86V616.481C5087.86 587.537 5079.65 564.864 5063.24 548.462C5046.83 531.095 5024.14 522.412 4995.18 522.412H4957.53C4926.64 522.412 4902.99 530.613 4886.58 547.015C4871.13 562.452 4863.41 579.336 4863.41 597.667V1137.48H4740.32V413.87Z" fill="#FAFAFA"/>
<path d="M6113.16 1137.48C6100.61 1137.48 6086.62 1133.62 6071.17 1125.91C6056.69 1118.19 6044.14 1107.57 6033.52 1094.07C6011.32 1123.01 5981.87 1137.48 5945.19 1137.48H5845.27C5771.91 1137.48 5718.33 1123.01 5684.54 1094.07C5651.72 1064.16 5635.31 1013.5 5635.31 942.108V913.163C5635.31 763.616 5705.78 688.843 5846.72 688.843H5997.32V616.481C5997.32 586.572 5988.15 563.416 5969.81 547.015C5951.46 530.613 5924.43 522.412 5888.71 522.412H5693.23V413.87H5874.23C5958.22 413.87 6020 432.201 6059.58 468.864C6100.13 505.527 6120.4 564.381 6120.4 645.426V992.761C6120.4 1007.23 6125.71 1018.33 6136.33 1026.05C6147.92 1032.8 6166.74 1036.18 6192.81 1036.18V1137.48H6113.16ZM5930.71 1028.94C5959.67 1028.94 5978.01 1022.19 5985.73 1008.68C5993.46 995.173 5997.32 977.806 5997.32 956.58V797.385H5845.27C5820.17 797.385 5799.42 805.586 5783.01 821.988C5766.6 838.39 5758.39 859.133 5758.39 884.218V956.58C5758.39 981.665 5764.18 999.997 5775.77 1011.57C5787.35 1023.15 5805.69 1028.94 5830.79 1028.94H5930.71Z" fill="#FAFAFA"/>
<path d="M6269.64 413.87H6385.48V448.603C6415.41 425.447 6454.02 413.87 6501.33 413.87H6538.98C6617.17 413.87 6675.09 432.201 6712.74 468.864C6751.36 505.527 6770.66 564.381 6770.66 645.426V1137.48H6647.58V616.481C6647.58 587.537 6638.89 564.864 6621.52 548.462C6605.1 531.095 6582.42 522.412 6553.46 522.412H6486.85C6454.99 522.412 6431.34 531.095 6415.89 548.462C6400.45 564.864 6392.72 582.713 6392.72 602.009V1137.48H6269.64V413.87Z" fill="#FAFAFA"/>
<path d="M7151.95 1137.48C7067.96 1137.48 7003.28 1117.22 6957.91 1076.7C6913.51 1035.21 6891.3 973.464 6891.3 891.455V370.453C6891.3 288.443 6913.51 227.177 6957.91 186.655C7003.28 145.168 7067.96 124.424 7151.95 124.424H7328.61V234.413H7137.47C7101.75 234.413 7072.79 245.026 7050.59 266.252C7028.38 287.478 7017.28 313.046 7017.28 342.955V918.952C7017.28 948.861 7028.38 974.429 7050.59 995.655C7072.79 1016.88 7101.75 1027.49 7137.47 1027.49H7328.61V1137.48H7151.95Z" fill="#FAFAFA"/>
<path d="M7766.4 1104.2C7734.54 1126.39 7695.92 1137.48 7650.55 1137.48H7630.28C7552.08 1137.48 7493.68 1119.15 7455.06 1082.49C7417.42 1045.83 7398.59 986.972 7398.59 905.927V413.87H7521.68V934.871C7521.68 963.816 7529.88 986.972 7546.29 1004.34C7563.67 1020.74 7586.84 1028.94 7615.8 1028.94H7665.03C7695.92 1028.94 7718.61 1021.22 7733.09 1005.79C7748.54 990.349 7757.22 972.982 7759.15 953.685V413.87H7882.24V1137.48H7766.4V1104.2Z" fill="#FAFAFA"/>
<path d="M8017.76 413.87H8133.61V452.945C8165.47 426.895 8204.08 413.87 8249.45 413.87H8355.16V529.648H8234.97C8203.11 529.648 8179.46 540.261 8164.02 561.487C8148.57 582.713 8140.85 603.456 8140.85 623.718V1137.48H8017.76V413.87Z" fill="#FAFAFA"/>
<path d="M8403.44 124.424H8526.52V442.814C8555.48 423.518 8591.69 413.87 8635.13 413.87H8672.78C8750.97 413.87 8808.89 432.201 8846.54 468.864C8885.16 505.527 8904.47 564.381 8904.47 645.426V1137.48H8781.38V616.481C8781.38 587.537 8772.69 564.864 8755.32 548.462C8738.9 531.095 8716.22 522.412 8687.26 522.412H8620.65C8589.76 522.412 8566.1 530.613 8549.69 547.015C8534.25 562.452 8526.52 579.336 8526.52 597.667V1137.48H8403.44V124.424Z" fill="#FAFAFA"/>
<path d="M9459.52 1137.48C9446.97 1137.48 9432.97 1133.62 9417.52 1125.91C9403.04 1118.19 9390.49 1107.57 9379.87 1094.07C9357.67 1123.01 9328.23 1137.48 9291.54 1137.48H9191.63C9118.26 1137.48 9064.68 1123.01 9030.89 1094.07C8998.07 1064.16 8981.66 1013.5 8981.66 942.108V913.163C8981.66 763.616 9052.13 688.843 9193.08 688.843H9343.67V616.481C9343.67 586.572 9334.5 563.416 9316.16 547.015C9297.82 530.613 9270.79 522.412 9235.07 522.412H9039.58V413.87H9220.59C9304.58 413.87 9366.36 432.201 9405.94 468.864C9446.49 505.527 9466.76 564.381 9466.76 645.426V992.761C9466.76 1007.23 9472.07 1018.33 9482.69 1026.05C9494.27 1032.8 9513.1 1036.18 9539.16 1036.18V1137.48H9459.52ZM9277.06 1028.94C9306.02 1028.94 9324.37 1022.19 9332.09 1008.68C9339.81 995.173 9343.67 977.806 9343.67 956.58V797.385H9191.63C9166.53 797.385 9145.77 805.586 9129.36 821.988C9112.95 838.39 9104.74 859.133 9104.74 884.218V956.58C9104.74 981.665 9110.54 999.997 9122.12 1011.57C9133.71 1023.15 9152.05 1028.94 9177.15 1028.94H9277.06Z" fill="#FAFAFA"/>
<path d="M9775.28 1137.48C9726.05 1137.48 9688.4 1121.56 9662.33 1089.72C9636.27 1057.89 9623.23 1015.92 9623.23 963.816V522.412H9529.11V413.87H9623.23V240.202H9746.32V413.87H9914.29V522.412H9746.32V971.052C9746.32 992.278 9751.63 1007.23 9762.25 1015.92C9772.87 1024.6 9789.28 1028.94 9811.48 1028.94H9914.29V1137.48H9775.28Z" fill="#FAFAFA"/>
<path d="M9947.42 1137.48V992.761H10092.2V1137.48H9947.42Z" fill="#FAFAFA"/>
<path d="M10199.1 254.675V124.424H10336.7V254.675H10199.1ZM10206.3 1137.48V413.87H10329.4V1137.48H10206.3Z" fill="#FAFAFA"/>
<path d="M10842.7 1104.2C10810.8 1126.39 10772.2 1137.48 10726.8 1137.48H10696.4C10611.5 1137.48 10549.2 1119.63 10509.6 1083.94C10470.1 1047.27 10450.3 987.937 10450.3 905.927V645.426C10450.3 564.381 10470.1 505.527 10509.6 468.864C10550.2 432.201 10612.4 413.87 10696.4 413.87H10835.4V124.424H10958.5V1137.48H10842.7V1104.2ZM10741.3 1028.94C10773.2 1028.94 10796.8 1020.74 10812.3 1004.34C10827.7 986.972 10835.4 968.64 10835.4 949.344V522.412H10682C10646.2 522.412 10619.2 530.613 10600.9 547.015C10582.5 563.416 10573.3 586.572 10573.3 616.481V934.871C10573.3 964.781 10582.5 987.936 10600.9 1004.34C10619.2 1020.74 10646.2 1028.94 10682 1028.94H10741.3Z" fill="#FAFAFA"/>
<path d="M2811.86 1620.47H2911.2L3058.29 2053.12L3204.33 1620.47H3302.62V2132.2H3236.74V1830.18C3236.74 1819.73 3236.98 1802.43 3237.44 1778.27C3237.9 1754.12 3238.14 1728.23 3238.14 1700.59L3092.1 2132.2H3023.43L2876.34 1700.59V1716.27C2876.34 1728.81 2876.58 1747.97 2877.04 1773.74C2877.74 1799.29 2878.09 1818.1 2878.09 1830.18V2132.2H2811.86V1620.47Z" fill="white"/>
<path d="M3555.32 1750.75C3581.81 1750.75 3607.48 1757.02 3632.35 1769.56C3657.21 1781.87 3676.15 1797.9 3689.16 1817.64C3701.71 1836.45 3710.07 1858.39 3714.25 1883.48C3717.97 1900.66 3719.83 1928.06 3719.83 1965.69H3446.22C3447.38 2003.54 3456.33 2033.96 3473.06 2056.95C3489.79 2079.71 3515.7 2091.09 3550.79 2091.09C3583.55 2091.09 3609.69 2080.29 3629.21 2058.7C3640.36 2046.15 3648.26 2031.64 3652.91 2015.15H3714.6C3712.98 2028.85 3707.52 2044.18 3698.22 2061.13C3689.16 2077.85 3678.94 2091.56 3667.55 2102.24C3648.5 2120.82 3624.91 2133.36 3596.79 2139.86C3581.69 2143.58 3564.61 2145.43 3545.56 2145.43C3499.08 2145.43 3459.7 2128.6 3427.4 2094.92C3395.1 2061.02 3378.95 2013.64 3378.95 1952.8C3378.95 1892.88 3395.22 1844.23 3427.75 1806.84C3460.28 1769.45 3502.8 1750.75 3555.32 1750.75ZM3655.35 1915.87C3652.79 1888.7 3646.87 1866.99 3637.57 1850.73C3620.38 1820.54 3591.68 1805.44 3551.48 1805.44C3522.67 1805.44 3498.5 1815.9 3478.98 1836.8C3459.47 1857.46 3449.13 1883.82 3447.96 1915.87H3655.35Z" fill="white"/>
<path d="M3797.21 1759.11H3856.81V1812.06C3874.47 1790.23 3893.18 1774.56 3912.93 1765.04C3932.68 1755.51 3954.64 1750.75 3978.8 1750.75C4031.78 1750.75 4067.57 1769.22 4086.16 1806.14C4096.38 1826.35 4101.49 1855.26 4101.49 1892.88V2132.2H4037.71V1897.06C4037.71 1874.3 4034.34 1855.96 4027.6 1842.02C4016.45 1818.8 3996.23 1807.19 3966.95 1807.19C3952.08 1807.19 3939.88 1808.7 3930.35 1811.71C3913.16 1816.82 3898.06 1827.04 3885.04 1842.37C3874.59 1854.68 3867.73 1867.45 3864.48 1880.69C3861.46 1893.69 3859.95 1912.39 3859.95 1936.77V2132.2H3797.21V1759.11Z" fill="white"/>
<path d="M4234.29 1950.01C4234.29 1989.95 4242.77 2023.4 4259.73 2050.33C4276.7 2077.27 4303.88 2090.74 4341.29 2090.74C4370.34 2090.74 4394.16 2078.32 4412.75 2053.47C4431.57 2028.39 4440.98 1992.51 4440.98 1945.83C4440.98 1898.69 4431.34 1863.85 4412.05 1841.32C4392.76 1818.57 4368.95 1807.19 4340.6 1807.19C4308.99 1807.19 4283.32 1819.26 4263.57 1843.41C4244.05 1867.57 4234.29 1903.1 4234.29 1950.01ZM4328.75 1752.5C4357.33 1752.5 4381.26 1758.53 4400.55 1770.61C4411.7 1777.58 4424.36 1789.77 4438.54 1807.19V1618.73H4498.84V2132.2H4442.37V2080.29C4427.73 2103.28 4410.42 2119.89 4390.44 2130.11C4370.46 2140.33 4347.57 2145.43 4321.78 2145.43C4280.18 2145.43 4244.16 2128.02 4213.72 2093.18C4183.29 2058.11 4168.07 2011.55 4168.07 1953.49C4168.07 1899.15 4181.89 1852.12 4209.54 1812.41C4237.43 1772.47 4277.16 1752.5 4328.75 1752.5Z" fill="white"/>
<path d="M4747.35 1750.75C4773.84 1750.75 4799.52 1757.02 4824.38 1769.56C4849.25 1781.87 4868.18 1797.9 4881.2 1817.64C4893.74 1836.45 4902.11 1858.39 4906.29 1883.48C4910.01 1900.66 4911.87 1928.06 4911.87 1965.69H4638.26C4639.42 2003.54 4648.36 2033.96 4665.1 2056.95C4681.83 2079.71 4707.73 2091.09 4742.82 2091.09C4775.59 2091.09 4801.73 2080.29 4821.25 2058.7C4832.4 2046.15 4840.3 2031.64 4844.95 2015.15H4906.64C4905.01 2028.85 4899.55 2044.18 4890.26 2061.13C4881.2 2077.85 4870.97 2091.56 4859.59 2102.24C4840.53 2120.82 4816.95 2133.36 4788.83 2139.86C4773.73 2143.58 4756.65 2145.43 4737.59 2145.43C4691.12 2145.43 4651.73 2128.6 4619.44 2094.92C4587.14 2061.02 4570.99 2013.64 4570.99 1952.8C4570.99 1892.88 4587.25 1844.23 4619.78 1806.84C4652.32 1769.45 4694.84 1750.75 4747.35 1750.75ZM4847.39 1915.87C4844.83 1888.7 4838.9 1866.99 4829.61 1850.73C4812.42 1820.54 4783.72 1805.44 4743.52 1805.44C4714.71 1805.44 4690.54 1815.9 4671.02 1836.8C4651.5 1857.46 4641.16 1883.82 4640 1915.87H4847.39Z" fill="white"/>
<path d="M4989.25 1759.11H5048.85V1812.06C5066.51 1790.23 5085.21 1774.56 5104.96 1765.04C5124.71 1755.51 5146.67 1750.75 5170.84 1750.75C5223.82 1750.75 5259.6 1769.22 5278.19 1806.14C5288.42 1826.35 5293.53 1855.26 5293.53 1892.88V2132.2H5229.74V1897.06C5229.74 1874.3 5226.37 1855.96 5219.64 1842.02C5208.48 1818.8 5188.27 1807.19 5158.99 1807.19C5144.12 1807.19 5131.92 1808.7 5122.39 1811.71C5105.2 1816.82 5090.09 1827.04 5077.08 1842.37C5066.62 1854.68 5059.77 1867.45 5056.52 1880.69C5053.49 1893.69 5051.98 1912.39 5051.98 1936.77V2132.2H4989.25V1759.11Z" fill="white"/>
<path d="M5518.34 1752.5C5547.62 1752.5 5573.18 1759.69 5595.02 1774.09C5606.87 1782.22 5618.96 1794.07 5631.27 1809.62V1762.6H5689.13V2101.89C5689.13 2149.27 5682.16 2186.66 5668.22 2214.06C5642.19 2264.69 5593.05 2290 5520.78 2290C5480.58 2290 5446.77 2280.94 5419.35 2262.83C5391.94 2244.95 5376.6 2216.85 5373.35 2178.53H5437.13C5440.15 2195.25 5446.19 2208.14 5455.26 2217.19C5469.43 2231.13 5491.74 2238.1 5522.18 2238.1C5570.28 2238.1 5601.76 2221.14 5616.63 2187.24C5625.46 2167.26 5629.53 2131.62 5628.83 2080.29C5616.28 2099.34 5601.18 2113.5 5583.52 2122.79C5565.86 2132.08 5542.51 2136.73 5513.46 2136.73C5473.03 2136.73 5437.6 2122.44 5407.16 2093.88C5376.95 2065.08 5361.84 2017.59 5361.84 1951.4C5361.84 1888.93 5377.06 1840.16 5407.5 1805.1C5438.18 1770.03 5475.12 1752.5 5518.34 1752.5ZM5631.27 1944.09C5631.27 1897.87 5621.75 1863.62 5602.69 1841.32C5583.64 1819.03 5559.36 1807.88 5529.84 1807.88C5485.7 1807.88 5455.49 1828.55 5439.22 1869.89C5430.62 1891.95 5426.33 1920.86 5426.33 1956.63C5426.33 1998.66 5434.81 2030.71 5451.77 2052.77C5468.96 2074.6 5491.97 2085.52 5520.78 2085.52C5565.86 2085.52 5597.58 2065.2 5615.94 2024.56C5626.16 2001.57 5631.27 1974.74 5631.27 1944.09Z" fill="white"/>
<path d="M5832.04 2032.92C5832.04 2051.03 5838.66 2065.31 5851.9 2075.76C5865.15 2086.22 5880.83 2091.44 5898.96 2091.44C5921.03 2091.44 5942.41 2086.33 5963.09 2076.11C5997.95 2059.16 6015.37 2031.41 6015.37 1992.86V1942.35C6007.7 1947.22 5997.83 1951.29 5985.75 1954.54C5973.66 1957.79 5961.81 1960.11 5950.19 1961.51L5912.2 1966.38C5889.43 1969.4 5872.35 1974.16 5860.97 1980.66C5841.68 1991.58 5832.04 2009 5832.04 2032.92ZM5984 1906.12C5998.41 1904.26 6008.05 1898.22 6012.93 1888C6015.72 1882.43 6017.12 1874.42 6017.12 1863.97C6017.12 1842.6 6009.45 1827.16 5994.11 1817.64C5979.01 1807.88 5957.28 1803.01 5928.93 1803.01C5896.17 1803.01 5872.93 1811.83 5859.22 1829.48C5851.56 1839.23 5846.56 1853.75 5844.24 1873.02H5785.68C5786.84 1827.04 5801.71 1795.11 5830.29 1777.23C5859.11 1759.11 5892.45 1750.06 5930.33 1750.06C5974.24 1750.06 6009.91 1758.42 6037.33 1775.14C6064.52 1791.86 6078.11 1817.87 6078.11 1853.17V2068.1C6078.11 2074.6 6079.39 2079.83 6081.95 2083.78C6084.73 2087.72 6090.43 2089.7 6099.02 2089.7C6101.81 2089.7 6104.95 2089.58 6108.44 2089.35C6111.92 2088.89 6115.64 2088.31 6119.59 2087.61V2133.94C6109.83 2136.73 6102.39 2138.47 6097.28 2139.16C6092.17 2139.86 6085.2 2140.21 6076.37 2140.21C6054.76 2140.21 6039.07 2132.55 6029.31 2117.22C6024.2 2109.09 6020.6 2097.59 6018.51 2082.73C6005.73 2099.45 5987.37 2113.97 5963.44 2126.28C5939.51 2138.58 5913.13 2144.74 5884.32 2144.74C5849.7 2144.74 5821.35 2134.29 5799.27 2113.39C5777.43 2092.25 5766.51 2065.89 5766.51 2034.31C5766.51 1999.71 5777.31 1972.89 5798.92 1953.84C5820.53 1934.8 5848.88 1923.07 5883.97 1918.66L5984 1906.12Z" fill="white"/>
<path d="M6183.02 1759.11H6242.63V1823.56C6247.51 1811.02 6259.47 1795.81 6278.53 1777.92C6297.58 1759.81 6319.54 1750.75 6344.4 1750.75C6345.56 1750.75 6347.54 1750.87 6350.33 1751.1C6353.12 1751.33 6357.88 1751.8 6364.62 1752.5V1818.68C6360.9 1817.99 6357.42 1817.52 6354.16 1817.29C6351.14 1817.06 6347.77 1816.94 6344.05 1816.94C6312.45 1816.94 6288.17 1827.16 6271.21 1847.59C6254.25 1867.8 6245.76 1891.14 6245.76 1917.61V2132.2H6183.02V1759.11Z" fill="white"/>
<path d="M6680.4 1759.11V2006.79C6680.4 2025.83 6683.42 2041.39 6689.47 2053.47C6700.62 2075.76 6721.42 2086.91 6751.86 2086.91C6795.54 2086.91 6825.28 2067.4 6841.08 2028.39C6849.68 2007.49 6853.98 1978.81 6853.98 1942.35V1759.11H6916.72V2132.2H6857.47L6858.16 2077.16C6850.03 2091.32 6839.92 2103.28 6827.84 2113.04C6803.91 2132.55 6774.86 2142.3 6740.7 2142.3C6687.49 2142.3 6651.24 2124.53 6631.96 2089C6621.5 2069.96 6616.27 2044.53 6616.27 2012.71V1759.11H6680.4Z" fill="white"/>
<path d="M7015.01 1759.11H7074.61V1812.06C7092.27 1790.23 7110.98 1774.56 7130.73 1765.04C7150.48 1755.51 7172.44 1750.75 7196.6 1750.75C7249.58 1750.75 7285.37 1769.22 7303.96 1806.14C7314.18 1826.35 7319.29 1855.26 7319.29 1892.88V2132.2H7255.51V1897.06C7255.51 1874.3 7252.14 1855.96 7245.4 1842.02C7234.25 1818.8 7214.03 1807.19 7184.75 1807.19C7169.88 1807.19 7157.68 1808.7 7148.16 1811.71C7130.96 1816.82 7115.86 1827.04 7102.84 1842.37C7092.39 1854.68 7085.53 1867.45 7082.28 1880.69C7079.26 1893.69 7077.75 1912.39 7077.75 1936.77V2132.2H7015.01V1759.11Z" fill="white"/>
<path d="M7424.9 1654.96H7488.34V1759.11H7547.94V1810.32H7488.34V2053.82C7488.34 2066.82 7492.75 2075.53 7501.58 2079.94C7506.46 2082.5 7514.6 2083.78 7525.98 2083.78C7529 2083.78 7532.26 2083.78 7535.74 2083.78C7539.23 2083.54 7543.29 2083.2 7547.94 2082.73V2132.2C7540.74 2134.29 7533.19 2135.8 7525.29 2136.73C7517.62 2137.65 7509.25 2138.12 7500.19 2138.12C7470.91 2138.12 7451.05 2130.69 7440.59 2115.82C7430.13 2100.73 7424.9 2081.22 7424.9 2057.3V1810.32H7374.36V1759.11H7424.9V1654.96Z" fill="white"/>
<path d="M7673.77 1759.11V2006.79C7673.77 2025.83 7676.79 2041.39 7682.83 2053.47C7693.98 2075.76 7714.78 2086.91 7745.22 2086.91C7788.91 2086.91 7818.65 2067.4 7834.45 2028.39C7843.05 2007.49 7847.35 1978.81 7847.35 1942.35V1759.11H7910.08V2132.2H7850.83L7851.53 2077.16C7843.39 2091.32 7833.29 2103.28 7821.2 2113.04C7797.27 2132.55 7768.22 2142.3 7734.07 2142.3C7680.85 2142.3 7644.61 2124.53 7625.32 2089C7614.86 2069.96 7609.63 2044.53 7609.63 2012.71V1759.11H7673.77Z" fill="white"/>
<path d="M8006.98 1620.47H8067.28V1917.61L8228.31 1759.11H8308.47L8165.57 1898.8L8316.49 2132.2H8236.33L8119.91 1944.09L8067.28 1992.16V2132.2H8006.98V1620.47Z" fill="white"/>
<path d="M8563.96 1759.11H8626V1812.06C8640.87 1793.72 8654.35 1780.36 8666.43 1772C8687.12 1757.84 8710.58 1750.75 8736.84 1750.75C8766.58 1750.75 8790.52 1758.07 8808.64 1772.7C8818.87 1781.06 8828.16 1793.37 8836.53 1809.62C8850.47 1789.65 8866.85 1774.91 8885.67 1765.38C8904.49 1755.63 8925.64 1750.75 8949.11 1750.75C8999.3 1750.75 9033.46 1768.87 9051.58 1805.1C9061.34 1824.6 9066.22 1850.85 9066.22 1883.82V2132.2H9001.04V1873.02C9001.04 1848.18 8994.77 1831.11 8982.22 1821.82C8969.9 1812.53 8954.8 1807.88 8936.91 1807.88C8912.28 1807.88 8891.02 1816.13 8873.12 1832.62C8855.46 1849.1 8846.63 1876.62 8846.63 1915.17V2132.2H8782.85V1888.7C8782.85 1863.39 8779.83 1844.92 8773.79 1833.31C8764.26 1815.9 8746.48 1807.19 8720.46 1807.19C8696.76 1807.19 8675.15 1816.36 8655.63 1834.71C8636.34 1853.05 8626.7 1886.26 8626.7 1934.33V2132.2H8563.96V1759.11Z" fill="white"/>
<path d="M9314.04 1750.75C9340.53 1750.75 9366.2 1757.02 9391.07 1769.56C9415.93 1781.87 9434.87 1797.9 9447.88 1817.64C9460.43 1836.45 9468.79 1858.39 9472.98 1883.48C9476.69 1900.66 9478.55 1928.06 9478.55 1965.69H9204.94C9206.1 2003.54 9215.05 2033.96 9231.78 2056.95C9248.51 2079.71 9274.42 2091.09 9309.51 2091.09C9342.27 2091.09 9368.41 2080.29 9387.93 2058.7C9399.08 2046.15 9406.98 2031.64 9411.63 2015.15H9473.32C9471.7 2028.85 9466.24 2044.18 9456.94 2061.13C9447.88 2077.85 9437.66 2091.56 9426.27 2102.24C9407.22 2120.82 9383.63 2133.36 9355.52 2139.86C9340.41 2143.58 9323.33 2145.43 9304.28 2145.43C9257.81 2145.43 9218.42 2128.6 9186.12 2094.92C9153.82 2061.02 9137.67 2013.64 9137.67 1952.8C9137.67 1892.88 9153.94 1844.23 9186.47 1806.84C9219 1769.45 9261.52 1750.75 9314.04 1750.75ZM9414.07 1915.87C9411.52 1888.7 9405.59 1866.99 9396.3 1850.73C9379.1 1820.54 9350.4 1805.44 9310.2 1805.44C9281.39 1805.44 9257.22 1815.9 9237.71 1836.8C9218.19 1857.46 9207.85 1883.82 9206.69 1915.87H9414.07Z" fill="white"/>
<path d="M9555.93 1759.11H9617.97V1812.06C9632.84 1793.72 9646.32 1780.36 9658.4 1772C9679.08 1757.84 9702.55 1750.75 9728.81 1750.75C9758.55 1750.75 9782.49 1758.07 9800.61 1772.7C9810.84 1781.06 9820.13 1793.37 9828.5 1809.62C9842.44 1789.65 9858.82 1774.91 9877.64 1765.38C9896.46 1755.63 9917.61 1750.75 9941.08 1750.75C9991.27 1750.75 10025.4 1768.87 10043.6 1805.1C10053.3 1824.6 10058.2 1850.85 10058.2 1883.82V2132.2H9993.01V1873.02C9993.01 1848.18 9986.74 1831.11 9974.19 1821.82C9961.87 1812.53 9946.77 1807.88 9928.88 1807.88C9904.25 1807.88 9882.99 1816.13 9865.09 1832.62C9847.43 1849.1 9838.6 1876.62 9838.6 1915.17V2132.2H9774.82V1888.7C9774.82 1863.39 9771.8 1844.92 9765.76 1833.31C9756.23 1815.9 9738.45 1807.19 9712.43 1807.19C9688.73 1807.19 9667.12 1816.36 9647.6 1834.71C9628.31 1853.05 9618.67 1886.26 9618.67 1934.33V2132.2H9555.93V1759.11Z" fill="white"/>
<path d="M10198.7 2032.92C10198.7 2051.03 10205.3 2065.31 10218.5 2075.76C10231.8 2086.22 10247.5 2091.44 10265.6 2091.44C10287.7 2091.44 10309 2086.33 10329.7 2076.11C10364.6 2059.16 10382 2031.41 10382 1992.86V1942.35C10374.3 1947.22 10364.4 1951.29 10352.4 1954.54C10340.3 1957.79 10328.4 1960.11 10316.8 1961.51L10278.8 1966.38C10256 1969.4 10239 1974.16 10227.6 1980.66C10208.3 1991.58 10198.7 2009 10198.7 2032.92ZM10350.6 1906.12C10365 1904.26 10374.7 1898.22 10379.6 1888C10382.3 1882.43 10383.7 1874.42 10383.7 1863.97C10383.7 1842.6 10376.1 1827.16 10360.7 1817.64C10345.6 1807.88 10323.9 1803.01 10295.6 1803.01C10262.8 1803.01 10239.6 1811.83 10225.8 1829.48C10218.2 1839.23 10213.2 1853.75 10210.9 1873.02H10152.3C10153.5 1827.04 10168.3 1795.11 10196.9 1777.23C10225.7 1759.11 10259.1 1750.06 10296.9 1750.06C10340.9 1750.06 10376.5 1758.42 10403.9 1775.14C10431.1 1791.86 10444.7 1817.87 10444.7 1853.17V2068.1C10444.7 2074.6 10446 2079.83 10448.6 2083.78C10451.4 2087.72 10457 2089.7 10465.6 2089.7C10468.4 2089.7 10471.6 2089.58 10475.1 2089.35C10478.5 2088.89 10482.3 2088.31 10486.2 2087.61V2133.94C10476.4 2136.73 10469 2138.47 10463.9 2139.16C10458.8 2139.86 10451.8 2140.21 10443 2140.21C10421.4 2140.21 10405.7 2132.55 10395.9 2117.22C10390.8 2109.09 10387.2 2097.59 10385.1 2082.73C10372.3 2099.45 10354 2113.97 10330.1 2126.28C10306.1 2138.58 10279.8 2144.74 10250.9 2144.74C10216.3 2144.74 10188 2134.29 10165.9 2113.39C10144 2092.25 10133.1 2065.89 10133.1 2034.31C10133.1 1999.71 10143.9 1972.89 10165.5 1953.84C10187.2 1934.8 10215.5 1923.07 10250.6 1918.66L10350.6 1906.12Z" fill="white"/>
<path d="M10547.9 1618.73H10610.6V1809.62C10625.5 1790.81 10638.9 1777.58 10650.7 1769.91C10670.9 1756.68 10696.1 1750.06 10726.4 1750.06C10780.5 1750.06 10817.2 1768.98 10836.5 1806.84C10847 1827.51 10852.2 1856.19 10852.2 1892.88V2132.2H10787.7V1897.06C10787.7 1869.66 10784.2 1849.57 10777.2 1836.8C10765.9 1816.36 10744.5 1806.14 10713.1 1806.14C10687.1 1806.14 10663.5 1815.08 10642.4 1832.96C10621.2 1850.85 10610.6 1884.64 10610.6 1934.33V2132.2H10547.9V1618.73Z" fill="white"/>
<path d="M10993.3 2032.92C10993.3 2051.03 11000 2065.31 11013.2 2075.76C11026.5 2086.22 11042.1 2091.44 11060.3 2091.44C11082.3 2091.44 11103.7 2086.33 11124.4 2076.11C11159.3 2059.16 11176.7 2031.41 11176.7 1992.86V1942.35C11169 1947.22 11159.1 1951.29 11147.1 1954.54C11135 1957.79 11123.1 1960.11 11111.5 1961.51L11073.5 1966.38C11050.7 1969.4 11033.7 1974.16 11022.3 1980.66C11003 1991.58 10993.3 2009 10993.3 2032.92ZM11145.3 1906.12C11159.7 1904.26 11169.4 1898.22 11174.2 1888C11177 1882.43 11178.4 1874.42 11178.4 1863.97C11178.4 1842.6 11170.8 1827.16 11155.4 1817.64C11140.3 1807.88 11118.6 1803.01 11090.2 1803.01C11057.5 1803.01 11034.2 1811.83 11020.5 1829.48C11012.9 1839.23 11007.9 1853.75 11005.5 1873.02H10947C10948.2 1827.04 10963 1795.11 10991.6 1777.23C11020.4 1759.11 11053.8 1750.06 11091.6 1750.06C11135.6 1750.06 11171.2 1758.42 11198.6 1775.14C11225.8 1791.86 11239.4 1817.87 11239.4 1853.17V2068.1C11239.4 2074.6 11240.7 2079.83 11243.3 2083.78C11246 2087.72 11251.7 2089.7 11260.3 2089.7C11263.1 2089.7 11266.3 2089.58 11269.7 2089.35C11273.2 2088.89 11276.9 2088.31 11280.9 2087.61V2133.94C11271.1 2136.73 11263.7 2138.47 11258.6 2139.16C11253.5 2139.86 11246.5 2140.21 11237.7 2140.21C11216.1 2140.21 11200.4 2132.55 11190.6 2117.22C11185.5 2109.09 11181.9 2097.59 11179.8 2082.73C11167 2099.45 11148.7 2113.97 11124.7 2126.28C11100.8 2138.58 11074.4 2144.74 11045.6 2144.74C11011 2144.74 10982.7 2134.29 10960.6 2113.39C10938.7 2092.25 10927.8 2065.89 10927.8 2034.31C10927.8 1999.71 10938.6 1972.89 10960.2 1953.84C10981.8 1934.8 11010.2 1923.07 11045.3 1918.66L11145.3 1906.12Z" fill="white"/>
<path d="M11342.6 1759.11H11404.6V1812.06C11419.5 1793.72 11433 1780.36 11445.1 1772C11465.7 1757.84 11489.2 1750.75 11515.5 1750.75C11545.2 1750.75 11569.1 1758.07 11587.3 1772.7C11597.5 1781.06 11606.8 1793.37 11615.2 1809.62C11629.1 1789.65 11645.5 1774.91 11664.3 1765.38C11683.1 1755.63 11704.3 1750.75 11727.7 1750.75C11777.9 1750.75 11812.1 1768.87 11830.2 1805.1C11840 1824.6 11844.9 1850.85 11844.9 1883.82V2132.2H11779.7V1873.02C11779.7 1848.18 11773.4 1831.11 11760.9 1821.82C11748.5 1812.53 11733.4 1807.88 11715.5 1807.88C11690.9 1807.88 11669.6 1816.13 11651.8 1832.62C11634.1 1849.1 11625.3 1876.62 11625.3 1915.17V2132.2H11561.5V1888.7C11561.5 1863.39 11558.5 1844.92 11552.4 1833.31C11542.9 1815.9 11525.1 1807.19 11499.1 1807.19C11475.4 1807.19 11453.8 1816.36 11434.3 1834.71C11415 1853.05 11405.3 1886.26 11405.3 1934.33V2132.2H11342.6V1759.11Z" fill="white"/>
<path d="M11937.2 1760.86H12001V2132.2H11937.2V1760.86ZM11937.2 1620.47H12001V1691.53H11937.2V1620.47Z" fill="white"/>
</svg>
