<svg width="3805" height="534" viewBox="0 0 3805 534" fill="none" xmlns="http://www.w3.org/2000/svg">
<path d="M250.406 304.689C229.745 304.707 209.403 299.595 191.196 289.808C172.99 280.022 157.488 265.867 146.076 248.609L175.874 228.768C184.031 241.094 195.106 251.205 208.111 258.2C221.116 265.195 235.646 268.855 250.406 268.855C265.165 268.855 279.696 265.195 292.7 258.2C305.705 251.205 316.78 241.094 324.937 228.768L354.735 248.609C343.324 265.867 327.821 280.022 309.615 289.808C291.409 299.595 271.066 304.707 250.406 304.689Z" fill="#1A7C9B"/>
<path d="M321.95 107.537C314.875 107.537 307.959 109.64 302.076 113.579C296.193 117.517 291.608 123.116 288.901 129.666C286.193 136.216 285.485 143.423 286.865 150.376C288.246 157.33 291.653 163.717 296.655 168.73C301.658 173.743 308.032 177.157 314.971 178.54C321.911 179.923 329.103 179.213 335.64 176.5C342.176 173.787 347.763 169.193 351.694 163.298C355.624 157.403 357.722 150.473 357.722 143.383C357.77 138.663 356.878 133.98 355.097 129.609C353.316 125.238 350.683 121.268 347.352 117.93C344.02 114.591 340.058 111.953 335.696 110.168C331.334 108.384 326.661 107.489 321.95 107.537Z" fill="#1A7C9B"/>
<path d="M178.861 107.537C171.786 107.537 164.87 109.64 158.987 113.579C153.105 117.517 148.519 123.116 145.812 129.666C143.104 136.216 142.396 143.423 143.776 150.376C145.157 157.33 148.564 163.717 153.566 168.73C158.569 173.743 164.943 177.157 171.882 178.54C178.822 179.923 186.014 179.213 192.551 176.5C199.087 173.787 204.674 169.193 208.605 163.298C212.535 157.403 214.633 150.473 214.633 143.383C214.681 138.663 213.789 133.98 212.008 129.609C210.227 125.238 207.594 121.268 204.263 117.93C200.931 114.591 196.969 111.953 192.607 110.168C188.245 108.384 183.572 107.489 178.861 107.537Z" fill="#1A7C9B"/>
<path d="M281.456 501.841L250.406 483.918L321.95 358.458H429.267C433.967 358.465 438.621 357.543 442.965 355.744C447.308 353.945 451.254 351.305 454.577 347.975C457.901 344.645 460.535 340.69 462.331 336.338C464.126 331.986 465.046 327.321 465.039 322.612V71.6916C465.046 66.9823 464.126 62.3178 462.331 57.9656C460.535 53.6134 457.901 49.659 454.577 46.329C451.254 42.999 447.308 40.3589 442.965 38.56C438.621 36.7611 433.967 35.8387 429.267 35.8458H71.5445C66.8448 35.8387 62.19 36.7611 57.8467 38.56C53.5034 40.3589 49.5571 42.999 46.2339 46.329C42.9108 49.659 40.2761 53.6134 38.4809 57.9656C36.6856 62.3178 35.7652 66.9823 35.7722 71.6916V322.612C35.7652 327.321 36.6856 331.986 38.4809 336.338C40.2761 340.69 42.9108 344.645 46.2339 347.975C49.5571 351.305 53.5034 353.945 57.8467 355.744C62.19 357.543 66.8448 358.465 71.5445 358.458H232.52V394.304H71.5445C52.5697 394.304 34.3721 386.751 20.9549 373.306C7.53771 359.861 2.23709e-06 341.626 2.23709e-06 322.612V71.6916C-0.00234765 62.2763 1.8466 52.9527 5.44122 44.2536C9.03583 35.5545 14.3057 27.6504 20.9497 20.9927C27.5936 14.3351 35.4816 9.05441 44.1628 5.4524C52.8441 1.8504 62.1485 -0.00235248 71.5445 2.24169e-06H429.267C438.663 -0.00235248 447.967 1.8504 456.649 5.4524C465.33 9.05441 473.218 14.3351 479.862 20.9927C486.506 27.6504 491.776 35.5545 495.37 44.2536C498.965 52.9527 500.814 62.2763 500.811 71.6916V322.612C500.811 341.626 493.274 359.861 479.857 373.306C466.439 386.751 448.242 394.304 429.267 394.304H342.788L281.456 501.841Z" fill="#1A7C9B"/>
<path d="M880.351 439.367L797.784 100.852V439.367H754.073V60.8354H830.703L913.809 399.351V60.8354H957.521V439.367H880.351Z" fill="#1A7C9B"/>
<path d="M1123.34 463.16C1119.02 479.383 1114.52 492.361 1109.85 502.095C1105.17 512.189 1098.51 519.94 1089.88 525.348C1081.61 531.116 1070.45 534 1056.42 534C1048.87 534 1038.61 532.918 1025.66 530.755V491.28C1035.74 492.722 1045.09 493.443 1053.72 493.443C1063.8 493.443 1070.99 485.332 1075.31 469.109L1083.94 439.367H1073.15L989.505 168.987H1039.15L1101.75 392.321L1154.64 168.987H1201.59L1123.34 463.16Z" fill="#1A7C9B"/>
<path d="M1390.08 439.367C1385.4 439.367 1380.19 437.925 1374.43 435.041C1369.03 432.157 1364.36 428.191 1360.4 423.144C1352.12 433.959 1341.15 439.367 1327.48 439.367H1290.24C1262.9 439.367 1242.93 433.959 1230.34 423.144C1218.11 411.969 1211.99 393.042 1211.99 366.365V355.549C1211.99 299.671 1238.26 271.732 1290.78 271.732H1346.91V244.694C1346.91 233.518 1343.49 224.866 1336.65 218.737C1329.82 212.609 1319.74 209.544 1306.43 209.544H1233.58V168.987H1301.04C1332.34 168.987 1355.36 175.837 1370.11 189.536C1385.22 203.235 1392.78 225.226 1392.78 255.509V385.291C1392.78 390.699 1394.76 394.845 1398.71 397.729C1403.03 400.252 1410.05 401.514 1419.76 401.514V439.367H1390.08ZM1322.08 398.81C1332.88 398.81 1339.71 396.287 1342.59 391.239C1345.47 386.192 1346.91 379.703 1346.91 371.772V312.289H1290.24C1280.89 312.289 1273.15 315.353 1267.04 321.481C1260.92 327.61 1257.86 335.361 1257.86 344.734V371.772C1257.86 381.145 1260.02 387.995 1264.34 392.321C1268.66 396.647 1275.49 398.81 1284.85 398.81H1322.08Z" fill="#1A7C9B"/>
<path d="M1451.66 168.987H1494.84V181.966C1505.99 173.313 1520.38 168.987 1538.01 168.987H1541.25C1573.98 168.987 1597.37 177.279 1611.4 193.862C1624.71 177.279 1643.24 168.987 1666.98 168.987H1670.22C1699.36 168.987 1720.95 175.837 1734.98 189.536C1749.37 203.235 1756.57 225.226 1756.57 255.509V439.367H1710.7V244.694C1710.7 233.878 1707.46 225.407 1700.98 219.278C1694.87 212.789 1686.41 209.544 1675.62 209.544H1661.59C1650.44 209.544 1641.98 212.969 1636.22 219.819C1630.83 226.308 1627.77 233.338 1627.05 240.908V439.367H1581.18V244.694C1581.18 233.878 1578.12 225.407 1572.01 219.278C1565.89 212.789 1557.44 209.544 1546.64 209.544H1532.61C1521.1 209.544 1512.28 212.609 1506.17 218.737C1500.41 224.505 1497.53 230.814 1497.53 237.664V439.367H1451.66V168.987Z" fill="#1A7C9B"/>
<path d="M1966.56 439.367C1961.88 439.367 1956.66 437.925 1950.91 435.041C1945.51 432.157 1940.83 428.191 1936.87 423.144C1928.6 433.959 1917.63 439.367 1903.96 439.367H1866.72C1839.38 439.367 1819.41 433.959 1806.82 423.144C1794.59 411.969 1788.47 393.042 1788.47 366.365V355.549C1788.47 299.671 1814.73 271.732 1867.26 271.732H1923.38V244.694C1923.38 233.518 1919.97 224.866 1913.13 218.737C1906.29 212.609 1896.22 209.544 1882.91 209.544H1810.06V168.987H1877.51C1908.81 168.987 1931.84 175.837 1946.59 189.536C1961.7 203.235 1969.25 225.226 1969.25 255.509V385.291C1969.25 390.699 1971.23 394.845 1975.19 397.729C1979.51 400.252 1986.52 401.514 1996.24 401.514V439.367H1966.56ZM1898.56 398.81C1909.35 398.81 1916.19 396.287 1919.07 391.239C1921.94 386.192 1923.38 379.703 1923.38 371.772V312.289H1866.72C1857.37 312.289 1849.63 315.353 1843.51 321.481C1837.4 327.61 1834.34 335.361 1834.34 344.734V371.772C1834.34 381.145 1836.5 387.995 1840.82 392.321C1845.13 396.647 1851.97 398.81 1861.32 398.81H1898.56Z" fill="#1A7C9B"/>
<path d="M2028.14 168.987H2071.31V181.966C2082.46 173.313 2096.86 168.987 2114.48 168.987H2128.52C2157.66 168.987 2179.24 175.837 2193.27 189.536C2207.66 203.235 2214.86 225.226 2214.86 255.509V439.367H2168.99V244.694C2168.99 233.878 2165.75 225.407 2159.28 219.278C2153.16 212.789 2144.7 209.544 2133.91 209.544H2109.09C2097.22 209.544 2088.4 212.789 2082.64 219.278C2076.89 225.407 2074.01 232.076 2074.01 239.286V439.367H2028.14V168.987Z" fill="#1A7C9B"/>
<path d="M2360.22 439.367C2328.93 439.367 2304.82 431.796 2287.91 416.655C2271.36 401.153 2263.09 378.081 2263.09 347.438V152.765C2263.09 122.122 2271.36 99.2294 2287.91 84.0881C2304.82 68.5863 2328.93 60.8354 2360.22 60.8354H2426.06V101.933H2354.83C2341.52 101.933 2330.72 105.899 2322.45 113.83C2314.17 121.761 2310.04 131.314 2310.04 142.49V357.712C2310.04 368.888 2314.17 378.442 2322.45 386.373C2330.72 394.304 2341.52 398.269 2354.83 398.269H2426.06V439.367H2360.22Z" fill="#1A7C9B"/>
<path d="M2592.48 426.93C2580.61 435.221 2566.22 439.367 2549.31 439.367H2541.76C2512.61 439.367 2490.85 432.517 2476.46 418.818C2462.43 405.119 2455.41 383.128 2455.41 352.846V168.987H2501.28V363.661C2501.28 374.476 2504.34 383.128 2510.46 389.617C2516.93 395.746 2525.57 398.81 2536.36 398.81H2554.71C2566.22 398.81 2574.67 395.926 2580.07 390.158C2585.83 384.39 2589.06 377.901 2589.78 370.691V168.987H2635.65V439.367H2592.48V426.93Z" fill="#1A7C9B"/>
<path d="M2689.43 168.987H2732.6V183.588C2744.48 173.854 2758.87 168.987 2775.78 168.987H2815.17V212.248H2770.38C2758.51 212.248 2749.69 216.214 2743.94 224.145C2738.18 232.076 2735.3 239.827 2735.3 247.397V439.367H2689.43V168.987Z" fill="#1A7C9B"/>
<path d="M2836.43 60.8354H2882.3V179.803C2893.1 172.592 2906.59 168.987 2922.78 168.987H2936.81C2965.95 168.987 2987.54 175.837 3001.57 189.536C3015.96 203.235 3023.15 225.226 3023.15 255.509V439.367H2977.28V244.694C2977.28 233.878 2974.04 225.407 2967.57 219.278C2961.45 212.789 2953 209.544 2942.2 209.544H2917.38C2905.87 209.544 2897.05 212.609 2890.94 218.737C2885.18 224.505 2882.3 230.814 2882.3 237.664V439.367H2836.43V60.8354Z" fill="#1A7C9B"/>
<path d="M3233.28 439.367C3228.6 439.367 3223.38 437.925 3217.63 435.041C3212.23 432.157 3207.55 428.191 3203.6 423.144C3195.32 433.959 3184.35 439.367 3170.68 439.367H3133.44C3106.1 439.367 3086.13 433.959 3073.54 423.144C3061.31 411.969 3055.19 393.042 3055.19 366.365V355.549C3055.19 299.671 3081.45 271.732 3133.98 271.732H3190.1V244.694C3190.1 233.518 3186.69 224.866 3179.85 218.737C3173.01 212.609 3162.94 209.544 3149.63 209.544H3076.78V168.987H3144.23C3175.53 168.987 3198.56 175.837 3213.31 189.536C3228.42 203.235 3235.97 225.226 3235.97 255.509V385.291C3235.97 390.699 3237.95 394.845 3241.91 397.729C3246.23 400.252 3253.24 401.514 3262.96 401.514V439.367H3233.28ZM3165.28 398.81C3176.07 398.81 3182.91 396.287 3185.79 391.239C3188.66 386.192 3190.1 379.703 3190.1 371.772V312.289H3133.44C3124.09 312.289 3116.35 315.353 3110.24 321.481C3104.12 327.61 3101.06 335.361 3101.06 344.734V371.772C3101.06 381.145 3103.22 387.995 3107.54 392.321C3111.85 396.647 3118.69 398.81 3128.04 398.81H3165.28Z" fill="#1A7C9B"/>
<path d="M3354.22 439.367C3335.87 439.367 3321.84 433.419 3312.13 421.522C3302.42 409.625 3297.56 393.943 3297.56 374.476V209.544H3262.48V168.987H3297.56V104.096H3343.43V168.987H3406.03V209.544H3343.43V377.18C3343.43 385.111 3345.41 390.699 3349.37 393.943C3353.32 397.188 3359.44 398.81 3367.71 398.81H3406.03V439.367H3354.22Z" fill="#1A7C9B"/>
<path d="M3421.65 439.367V385.291H3475.61V439.367H3421.65Z" fill="#1A7C9B"/>
<path d="M3518.71 109.504V60.8354H3569.98V109.504H3518.71ZM3521.41 439.367V168.987H3567.28V439.367H3521.41Z" fill="#1A7C9B"/>
<path d="M3761.83 426.93C3749.96 435.221 3735.56 439.367 3718.66 439.367H3707.32C3675.66 439.367 3652.46 432.698 3637.71 419.359C3622.96 405.66 3615.58 383.489 3615.58 352.846V255.509C3615.58 225.226 3622.96 203.235 3637.71 189.536C3652.82 175.837 3676.02 168.987 3707.32 168.987H3759.13V60.8354H3805V439.367H3761.83V426.93ZM3724.05 398.81C3735.92 398.81 3744.74 395.746 3750.5 389.617C3756.25 383.128 3759.13 376.278 3759.13 369.068V209.544H3701.93C3688.62 209.544 3678.54 212.609 3671.71 218.737C3664.87 224.866 3661.45 233.518 3661.45 244.694V363.661C3661.45 374.836 3664.87 383.489 3671.71 389.617C3678.54 395.746 3688.62 398.81 3701.93 398.81H3724.05Z" fill="#1A7C9B"/>
</svg>
