<svg width="501" height="502" viewBox="0 0 501 502" fill="none" xmlns="http://www.w3.org/2000/svg">
<path d="M250.208 304.689C229.564 304.707 209.238 299.595 191.046 289.808C172.854 280.022 157.364 265.867 145.961 248.609L175.736 228.768C183.886 241.094 194.953 251.205 207.947 258.2C220.941 265.195 235.46 268.855 250.208 268.855C264.956 268.855 279.475 265.195 292.47 258.2C305.464 251.205 316.53 241.094 324.681 228.768L354.456 248.609C343.053 265.867 327.563 280.022 309.371 289.808C291.179 299.595 270.852 304.707 250.208 304.689Z" fill="#1A7C9B"/>
<path d="M321.696 107.537C314.627 107.537 307.716 109.64 301.838 113.578C295.96 117.517 291.379 123.116 288.673 129.666C285.968 136.216 285.26 143.423 286.639 150.376C288.018 157.33 291.423 163.717 296.421 168.73C301.42 173.743 307.789 177.157 314.723 178.54C321.657 179.923 328.844 179.213 335.375 176.5C341.906 173.787 347.489 169.193 351.416 163.298C355.344 157.403 357.44 150.473 357.44 143.383C357.488 138.663 356.596 133.98 354.817 129.609C353.038 125.238 350.406 121.268 347.078 117.93C343.749 114.591 339.79 111.953 335.431 110.168C331.073 108.384 326.404 107.489 321.696 107.537Z" fill="#1A7C9B"/>
<path d="M178.72 107.537C171.651 107.537 164.74 109.64 158.862 113.578C152.984 117.517 148.402 123.116 145.697 129.666C142.992 136.216 142.284 143.423 143.663 150.376C145.042 157.33 148.446 163.717 153.445 168.73C158.444 173.743 164.813 177.157 171.747 178.54C178.681 179.923 185.867 179.213 192.399 176.5C198.93 173.787 204.513 169.193 208.44 163.298C212.368 157.403 214.464 150.473 214.464 143.383C214.512 138.663 213.62 133.98 211.841 129.609C210.061 125.238 207.43 121.268 204.102 117.93C200.773 114.591 196.813 111.953 192.455 110.168C188.097 108.384 183.427 107.489 178.72 107.537Z" fill="#1A7C9B"/>
<path d="M281.234 501.841L250.208 483.918L321.696 358.458H428.928C433.624 358.465 438.276 357.543 442.615 355.744C446.955 353.945 450.899 351.305 454.219 347.975C457.54 344.645 460.172 340.69 461.966 336.338C463.76 331.986 464.68 327.322 464.672 322.612V71.6916C464.68 66.9823 463.76 62.3178 461.966 57.9656C460.172 53.6134 457.54 49.659 454.219 46.329C450.899 42.999 446.955 40.3589 442.615 38.56C438.276 36.7611 433.624 35.8387 428.928 35.8458H71.4881C66.7921 35.8387 62.1409 36.7611 57.8011 38.56C53.4612 40.3589 49.518 42.999 46.1975 46.329C42.8769 49.659 40.2443 53.6134 38.4505 57.9656C36.6567 62.3178 35.737 66.9823 35.744 71.6916V322.612C35.737 327.322 36.6567 331.986 38.4505 336.338C40.2443 340.69 42.8769 344.645 46.1975 347.975C49.518 351.305 53.4612 353.945 57.8011 355.744C62.1409 357.543 66.7921 358.465 71.4881 358.458H232.336V394.304H71.4881C52.5283 394.304 34.345 386.751 20.9384 373.306C7.53176 359.861 2.23533e-06 341.626 2.23533e-06 322.612V71.6916C-0.0023458 62.2763 1.84514 52.9527 5.43692 44.2536C9.02871 35.5545 14.2944 27.6504 20.9331 20.9927C27.5719 14.3351 35.4536 9.05441 44.128 5.4524C52.8024 1.8504 62.0995 -0.00235248 71.4881 2.24169e-06H428.928C438.317 -0.00235248 447.614 1.8504 456.289 5.4524C464.963 9.05441 472.845 14.3351 479.483 20.9927C486.122 27.6504 491.388 35.5545 494.98 44.2536C498.571 52.9527 500.419 62.2763 500.417 71.6916V322.612C500.417 341.626 492.885 359.861 479.478 373.306C466.072 386.751 447.888 394.304 428.928 394.304H342.517L281.234 501.841Z" fill="#1A7C9B"/>
</svg>
