<svg width="166" height="35" viewBox="0 0 166 35" fill="none" xmlns="http://www.w3.org/2000/svg">
<path d="M16.9413 19.1562C16.1206 19.1569 15.3125 18.9542 14.5892 18.5663C13.866 18.1783 13.2502 17.6172 12.7969 16.933L13.9806 16.1465C14.3046 16.6351 14.7446 17.036 15.2612 17.3132C15.7778 17.5905 16.3549 17.7356 16.9413 17.7356C17.5276 17.7356 18.1048 17.5905 18.6214 17.3132C19.138 17.036 19.5779 16.6351 19.9019 16.1465L21.0856 16.933C20.6323 17.6172 20.0165 18.1783 19.2933 18.5663C18.5701 18.9542 17.762 19.1569 16.9413 19.1562Z" fill="#FAFAFA"/>
<path d="M19.7833 11.3406C19.5022 11.3406 19.2275 11.424 18.9938 11.5801C18.7601 11.7363 18.578 11.9582 18.4704 12.2179C18.3629 12.4775 18.3347 12.7632 18.3895 13.0389C18.4444 13.3145 18.5797 13.5677 18.7784 13.7665C18.9772 13.9652 19.2304 14.1005 19.506 14.1554C19.7817 14.2102 20.0674 14.1821 20.3271 14.0745C20.5867 13.967 20.8086 13.7848 20.9648 13.5511C21.1209 13.3175 21.2043 13.0427 21.2043 12.7617C21.2062 12.5745 21.1707 12.3889 21.1 12.2156C21.0292 12.0424 20.9246 11.885 20.7923 11.7526C20.66 11.6203 20.5026 11.5157 20.3293 11.4449C20.156 11.3742 19.9704 11.3387 19.7833 11.3406V11.3406Z" fill="#FAFAFA"/>
<path d="M14.0992 11.3406C13.8182 11.3406 13.5434 11.424 13.3098 11.5801C13.0761 11.7363 12.8939 11.9582 12.7864 12.2179C12.6788 12.4775 12.6507 12.7632 12.7055 13.0389C12.7604 13.3145 12.8957 13.5677 13.0944 13.7665C13.2932 13.9652 13.5464 14.1005 13.822 14.1554C14.0977 14.2102 14.3834 14.1821 14.643 14.0745C14.9027 13.967 15.1246 13.7848 15.2808 13.5511C15.4369 13.3175 15.5203 13.0427 15.5203 12.7617C15.5222 12.5745 15.4867 12.3889 15.416 12.2156C15.3452 12.0424 15.2406 11.885 15.1083 11.7526C14.9759 11.6203 14.8185 11.5157 14.6453 11.4449C14.472 11.3742 14.2864 11.3387 14.0992 11.3406V11.3406Z" fill="#FAFAFA"/>
<path d="M18.1747 26.9718L16.9412 26.2613L19.7833 21.2878H24.0463C24.233 21.2881 24.4179 21.2515 24.5904 21.1802C24.763 21.1089 24.9197 21.0042 25.0517 20.8722C25.1838 20.7402 25.2884 20.5834 25.3597 20.4109C25.431 20.2384 25.4676 20.0535 25.4673 19.8668V9.91966C25.4676 9.73298 25.431 9.54807 25.3597 9.37553C25.2884 9.203 25.1838 9.04624 25.0517 8.91423C24.9197 8.78222 24.763 8.67756 24.5904 8.60625C24.4179 8.53493 24.233 8.49837 24.0463 8.49865H9.83617C9.64948 8.49837 9.46457 8.53493 9.29204 8.60625C9.11951 8.67756 8.96274 8.78222 8.83073 8.91423C8.69872 9.04624 8.59406 9.203 8.52275 9.37553C8.45144 9.54807 8.41487 9.73298 8.41515 9.91966V19.8668C8.41487 20.0535 8.45144 20.2384 8.52275 20.4109C8.59406 20.5834 8.69872 20.7402 8.83073 20.8722C8.96274 21.0042 9.11951 21.1089 9.29204 21.1802C9.46457 21.2515 9.64948 21.2881 9.83617 21.2878H16.2307V22.7088H9.83617C9.08242 22.7088 8.35953 22.4094 7.82655 21.8764C7.29357 21.3434 6.99414 20.6205 6.99414 19.8668V9.91966C6.99405 9.54642 7.06749 9.17681 7.21029 8.83196C7.35308 8.4871 7.56242 8.17376 7.82634 7.90984C8.09027 7.64591 8.40361 7.43658 8.74846 7.29378C9.09331 7.15099 9.46292 7.07754 9.83617 7.07764H24.0463C24.4196 7.07754 24.7892 7.15099 25.134 7.29378C25.4789 7.43658 25.7922 7.64591 26.0561 7.90984C26.3201 8.17376 26.5294 8.4871 26.6722 8.83196C26.815 9.17681 26.8884 9.54642 26.8883 9.91966V19.8668C26.8883 20.6205 26.5889 21.3434 26.0559 21.8764C25.5229 22.4094 24.8001 22.7088 24.0463 22.7088H20.611L18.1747 26.9718Z" fill="#FAFAFA"/>
<path d="M41.9651 24.6565L38.6853 11.2369V24.6565H36.9489V9.65059H39.9929L43.2942 23.0702V9.65059H45.0306V24.6565H41.9651ZM51.6176 25.5997C51.4461 26.2428 51.2674 26.7573 51.0816 27.1432C50.8958 27.5433 50.6315 27.8506 50.2885 28.065C49.9598 28.2936 49.5167 28.408 48.9594 28.408C48.6592 28.408 48.2519 28.3651 47.7375 28.2793V26.7144C48.1376 26.7716 48.5092 26.8002 48.8522 26.8002C49.2523 26.8002 49.5382 26.4786 49.7097 25.8355L50.0527 24.6565H49.6239L46.3012 13.938H48.2734L50.7601 22.7915L52.8609 13.938H54.7259L51.6176 25.5997ZM62.2135 24.6565C62.0278 24.6565 61.8205 24.5993 61.5919 24.485C61.3775 24.3707 61.1917 24.2135 61.0345 24.0134C60.7058 24.4421 60.2699 24.6565 59.7268 24.6565H58.2477C57.1615 24.6565 56.3684 24.4421 55.8682 24.0134C55.3823 23.5704 55.1393 22.8201 55.1393 21.7625V21.3338C55.1393 19.1186 56.1826 18.011 58.2691 18.011H60.4986V16.9392C60.4986 16.4961 60.3628 16.1531 60.0913 15.9102C59.8197 15.6672 59.4196 15.5458 58.8908 15.5458H55.9968V13.938H58.6764C59.9198 13.938 60.8344 14.2095 61.4204 14.7526C62.0206 15.2957 62.3207 16.1674 62.3207 17.3679V22.5128C62.3207 22.7272 62.3993 22.8915 62.5565 23.0058C62.728 23.1059 63.0067 23.1559 63.3926 23.1559V24.6565H62.2135ZM59.5125 23.0487C59.9412 23.0487 60.2128 22.9487 60.3271 22.7486C60.4414 22.5485 60.4986 22.2913 60.4986 21.9769V19.6188H58.2477C57.8761 19.6188 57.5689 19.7403 57.3259 19.9832C57.0829 20.2262 56.9615 20.5334 56.9615 20.905V21.9769C56.9615 22.3484 57.0472 22.62 57.2187 22.7915C57.3902 22.963 57.6617 23.0487 58.0333 23.0487H59.5125ZM64.6599 13.938H66.3749V14.4525C66.8179 14.1095 67.3896 13.938 68.0899 13.938H68.2185C69.519 13.938 70.4479 14.2667 71.0053 14.9241C71.5341 14.2667 72.2701 13.938 73.2133 13.938H73.3419C74.4995 13.938 75.357 14.2095 75.9144 14.7526C76.486 15.2957 76.7719 16.1674 76.7719 17.3679V24.6565H74.9497V16.9392C74.9497 16.5104 74.8211 16.1746 74.5638 15.9316C74.3209 15.6744 73.985 15.5458 73.5563 15.5458H72.9989C72.5559 15.5458 72.2201 15.6815 71.9914 15.9531C71.777 16.2103 71.6556 16.489 71.627 16.7891V24.6565H69.8048V16.9392C69.8048 16.5104 69.6833 16.1746 69.4404 15.9316C69.1974 15.6744 68.8616 15.5458 68.4329 15.5458H67.8755C67.4182 15.5458 67.068 15.6672 66.8251 15.9102C66.5964 16.1389 66.4821 16.389 66.4821 16.6605V24.6565H64.6599V13.938ZM85.1134 24.6565C84.9276 24.6565 84.7204 24.5993 84.4918 24.485C84.2774 24.3707 84.0916 24.2135 83.9344 24.0134C83.6057 24.4421 83.1698 24.6565 82.6267 24.6565H81.1476C80.0614 24.6565 79.2683 24.4421 78.7681 24.0134C78.2822 23.5704 78.0392 22.8201 78.0392 21.7625V21.3338C78.0392 19.1186 79.0825 18.011 81.169 18.011H83.3985V16.9392C83.3985 16.4961 83.2627 16.1531 82.9912 15.9102C82.7196 15.6672 82.3195 15.5458 81.7907 15.5458H78.8967V13.938H81.5763C82.8197 13.938 83.7343 14.2095 84.3203 14.7526C84.9205 15.2957 85.2206 16.1674 85.2206 17.3679V22.5128C85.2206 22.7272 85.2992 22.8915 85.4564 23.0058C85.6279 23.1059 85.9066 23.1559 86.2925 23.1559V24.6565H85.1134ZM82.4124 23.0487C82.8411 23.0487 83.1126 22.9487 83.227 22.7486C83.3413 22.5485 83.3985 22.2913 83.3985 21.9769V19.6188H81.1476C80.776 19.6188 80.4687 19.7403 80.2258 19.9832C79.9828 20.2262 79.8614 20.5334 79.8614 20.905V21.9769C79.8614 22.3484 79.9471 22.62 80.1186 22.7915C80.2901 22.963 80.5616 23.0487 80.9332 23.0487H82.4124ZM87.5598 13.938H89.2748V14.4525C89.7178 14.1095 90.2895 13.938 90.9898 13.938H91.5471C92.7047 13.938 93.5622 14.2095 94.1196 14.7526C94.6912 15.2957 94.977 16.1674 94.977 17.3679V24.6565H93.1549V16.9392C93.1549 16.5104 93.0263 16.1746 92.769 15.9316C92.5261 15.6744 92.1902 15.5458 91.7615 15.5458H90.7754C90.3038 15.5458 89.9536 15.6744 89.725 15.9316C89.4963 16.1746 89.382 16.439 89.382 16.7248V24.6565H87.5598V13.938ZM100.752 24.6565C99.5082 24.6565 98.5507 24.3564 97.879 23.7561C97.2216 23.1416 96.8929 22.227 96.8929 21.0122V13.2949C96.8929 12.0801 97.2216 11.1726 97.879 10.5724C98.5507 9.95785 99.5082 9.65059 100.752 9.65059H103.367V11.2798H100.537C100.008 11.2798 99.5796 11.437 99.2509 11.7514C98.9222 12.0658 98.7579 12.4445 98.7579 12.8876V21.4195C98.7579 21.8625 98.9222 22.2413 99.2509 22.5557C99.5796 22.8701 100.008 23.0273 100.537 23.0273H103.367V24.6565H100.752ZM109.978 24.1634C109.506 24.4921 108.934 24.6565 108.263 24.6565H107.963C106.805 24.6565 105.94 24.385 105.369 23.8419C104.811 23.2988 104.533 22.427 104.533 21.2266V13.938H106.355V21.6553C106.355 22.0841 106.476 22.427 106.719 22.6843C106.977 22.9272 107.32 23.0487 107.748 23.0487H108.477C108.934 23.0487 109.27 22.9344 109.485 22.7057C109.713 22.4771 109.842 22.2198 109.871 21.934V13.938H111.693V24.6565H109.978V24.1634ZM113.829 13.938H115.544V14.5168C116.015 14.1309 116.587 13.938 117.259 13.938H118.824V15.653H117.044C116.573 15.653 116.223 15.8102 115.994 16.1246C115.765 16.439 115.651 16.7462 115.651 17.0464V24.6565H113.829V13.938ZM119.668 9.65059H121.491V14.3667C121.919 14.0809 122.455 13.938 123.098 13.938H123.656C124.813 13.938 125.671 14.2095 126.228 14.7526C126.8 15.2957 127.086 16.1674 127.086 17.3679V24.6565H125.263V16.9392C125.263 16.5104 125.135 16.1746 124.878 15.9316C124.635 15.6744 124.299 15.5458 123.87 15.5458H122.884C122.427 15.5458 122.076 15.6672 121.834 15.9102C121.605 16.1389 121.491 16.389 121.491 16.6605V24.6565H119.668V9.65059ZM135.433 24.6565C135.247 24.6565 135.04 24.5993 134.811 24.485C134.596 24.3707 134.411 24.2135 134.254 24.0134C133.925 24.4421 133.489 24.6565 132.946 24.6565H131.467C130.381 24.6565 129.587 24.4421 129.087 24.0134C128.601 23.5704 128.358 22.8201 128.358 21.7625V21.3338C128.358 19.1186 129.402 18.011 131.488 18.011H133.718V16.9392C133.718 16.4961 133.582 16.1531 133.31 15.9102C133.039 15.6672 132.639 15.5458 132.11 15.5458H129.216V13.938H131.895C133.139 13.938 134.053 14.2095 134.639 14.7526C135.24 15.2957 135.54 16.1674 135.54 17.3679V22.5128C135.54 22.7272 135.618 22.8915 135.776 23.0058C135.947 23.1059 136.226 23.1559 136.612 23.1559V24.6565H135.433ZM132.731 23.0487C133.16 23.0487 133.432 22.9487 133.546 22.7486C133.66 22.5485 133.718 22.2913 133.718 21.9769V19.6188H131.467C131.095 19.6188 130.788 19.7403 130.545 19.9832C130.302 20.2262 130.18 20.5334 130.18 20.905V21.9769C130.18 22.3484 130.266 22.62 130.438 22.7915C130.609 22.963 130.881 23.0487 131.252 23.0487H132.731ZM140.237 24.6565C139.508 24.6565 138.951 24.4207 138.565 23.9491C138.179 23.4775 137.986 22.8558 137.986 22.0841V15.5458H136.593V13.938H137.986V11.3655H139.808V13.938H142.295V15.5458H139.808V22.1912C139.808 22.5056 139.887 22.7272 140.044 22.8558C140.201 22.9844 140.444 23.0487 140.773 23.0487H142.295V24.6565H140.237ZM142.915 24.6565V22.5128H145.059V24.6565H142.915ZM146.771 11.5799V9.65059H148.808V11.5799H146.771ZM146.878 24.6565V13.938H148.7V24.6565H146.878ZM156.429 24.1634C155.957 24.4921 155.385 24.6565 154.714 24.6565H154.264C153.006 24.6565 152.084 24.3921 151.498 23.8633C150.912 23.3203 150.619 22.4413 150.619 21.2266V17.3679C150.619 16.1674 150.912 15.2957 151.498 14.7526C152.098 14.2095 153.02 13.938 154.264 13.938H156.322V9.65059H158.144V24.6565H156.429V24.1634ZM154.928 23.0487C155.4 23.0487 155.75 22.9272 155.979 22.6843C156.207 22.427 156.322 22.1555 156.322 21.8697V15.5458H154.049C153.52 15.5458 153.12 15.6672 152.849 15.9102C152.577 16.1531 152.441 16.4961 152.441 16.9392V21.6553C152.441 22.0983 152.577 22.4413 152.849 22.6843C153.12 22.9272 153.52 23.0487 154.049 23.0487H154.928Z" fill="#FAFAFA"/>
</svg>
