<svg width="7104" height="2176" viewBox="0 0 7104 2176" fill="none" xmlns="http://www.w3.org/2000/svg">
<path d="M575 726L574.25 411L419.75 670.5H365L211.25 417.75V726H97.25V201H197.75L394.25 527.25L587.75 201H687.5L689 726H575ZM1201.06 525.75C1201.06 527.25 1200.31 537.75 1198.81 557.25H893.559C899.059 582.25 912.059 602 932.559 616.5C953.059 631 978.559 638.25 1009.06 638.25C1030.06 638.25 1048.56 635.25 1064.56 629.25C1081.06 622.75 1096.31 612.75 1110.31 599.25L1172.56 666.75C1134.56 710.25 1079.06 732 1006.06 732C960.559 732 920.309 723.25 885.309 705.75C850.309 687.75 823.309 663 804.309 631.5C785.309 600 775.809 564.25 775.809 524.25C775.809 484.75 785.059 449.25 803.559 417.75C822.559 385.75 848.309 361 880.809 343.5C913.809 325.5 950.559 316.5 991.059 316.5C1030.56 316.5 1066.31 325 1098.31 342C1130.31 359 1155.31 383.5 1173.31 415.5C1191.81 447 1201.06 483.75 1201.06 525.75ZM991.809 405C965.309 405 943.059 412.5 925.059 427.5C907.059 442.5 896.059 463 892.059 489H1090.81C1086.81 463.5 1075.81 443.25 1057.81 428.25C1039.81 412.75 1017.81 405 991.809 405ZM1524.7 316.5C1574.7 316.5 1614.95 331.5 1645.45 361.5C1676.45 391.5 1691.95 436 1691.95 495V726H1574.95V513C1574.95 481 1567.95 457.25 1553.95 441.75C1539.95 425.75 1519.7 417.75 1493.2 417.75C1463.7 417.75 1440.2 427 1422.7 445.5C1405.2 463.5 1396.45 490.5 1396.45 526.5V726H1279.45V322.5H1391.2V369.75C1406.7 352.75 1425.95 339.75 1448.95 330.75C1471.95 321.25 1497.2 316.5 1524.7 316.5ZM2213.9 169.5V726H2102.15V679.5C2073.15 714.5 2031.15 732 1976.15 732C1938.15 732 1903.65 723.5 1872.65 706.5C1842.15 689.5 1818.15 665.25 1800.65 633.75C1783.15 602.25 1774.4 565.75 1774.4 524.25C1774.4 482.75 1783.15 446.25 1800.65 414.75C1818.15 383.25 1842.15 359 1872.65 342C1903.65 325 1938.15 316.5 1976.15 316.5C2027.65 316.5 2067.9 332.75 2096.9 365.25V169.5H2213.9ZM1996.4 636C2025.9 636 2050.4 626 2069.9 606C2089.4 585.5 2099.15 558.25 2099.15 524.25C2099.15 490.25 2089.4 463.25 2069.9 443.25C2050.4 422.75 2025.9 412.5 1996.4 412.5C1966.4 412.5 1941.65 422.75 1922.15 443.25C1902.65 463.25 1892.9 490.25 1892.9 524.25C1892.9 558.25 1902.65 585.5 1922.15 606C1941.65 626 1966.4 636 1996.4 636ZM2717.94 525.75C2717.94 527.25 2717.19 537.75 2715.69 557.25H2410.44C2415.94 582.25 2428.94 602 2449.44 616.5C2469.94 631 2495.44 638.25 2525.94 638.25C2546.94 638.25 2565.44 635.25 2581.44 629.25C2597.94 622.75 2613.19 612.75 2627.19 599.25L2689.44 666.75C2651.44 710.25 2595.94 732 2522.94 732C2477.44 732 2437.19 723.25 2402.19 705.75C2367.19 687.75 2340.19 663 2321.19 631.5C2302.19 600 2292.69 564.25 2292.69 524.25C2292.69 484.75 2301.94 449.25 2320.44 417.75C2339.44 385.75 2365.19 361 2397.69 343.5C2430.69 325.5 2467.44 316.5 2507.94 316.5C2547.44 316.5 2583.19 325 2615.19 342C2647.19 359 2672.19 383.5 2690.19 415.5C2708.69 447 2717.94 483.75 2717.94 525.75ZM2508.69 405C2482.19 405 2459.94 412.5 2441.94 427.5C2423.94 442.5 2412.94 463 2408.94 489H2607.69C2603.69 463.5 2592.69 443.25 2574.69 428.25C2556.69 412.75 2534.69 405 2508.69 405ZM3041.58 316.5C3091.58 316.5 3131.83 331.5 3162.33 361.5C3193.33 391.5 3208.83 436 3208.83 495V726H3091.83V513C3091.83 481 3084.83 457.25 3070.83 441.75C3056.83 425.75 3036.58 417.75 3010.08 417.75C2980.58 417.75 2957.08 427 2939.58 445.5C2922.08 463.5 2913.33 490.5 2913.33 526.5V726H2796.33V322.5H2908.08V369.75C2923.58 352.75 2942.83 339.75 2965.83 330.75C2988.83 321.25 3014.08 316.5 3041.58 316.5ZM3736.03 322.5V658.5C3736.03 732.5 3716.78 787.5 3678.28 823.5C3639.78 859.5 3583.53 877.5 3509.53 877.5C3470.53 877.5 3433.53 872.75 3398.53 863.25C3363.53 853.75 3334.53 840 3311.53 822L3358.03 738C3375.03 752 3396.53 763 3422.53 771C3448.53 779.5 3474.53 783.75 3500.53 783.75C3541.03 783.75 3570.78 774.5 3589.78 756C3609.28 738 3619.03 710.5 3619.03 673.5V656.25C3588.53 689.75 3546.03 706.5 3491.53 706.5C3454.53 706.5 3420.53 698.5 3389.53 682.5C3359.03 666 3334.78 643 3316.78 613.5C3298.78 584 3289.78 550 3289.78 511.5C3289.78 473 3298.78 439 3316.78 409.5C3334.78 380 3359.03 357.25 3389.53 341.25C3420.53 324.75 3454.53 316.5 3491.53 316.5C3550.03 316.5 3594.53 335.75 3625.03 374.25V322.5H3736.03ZM3514.78 610.5C3545.78 610.5 3571.03 601.5 3590.53 583.5C3610.53 565 3620.53 541 3620.53 511.5C3620.53 482 3610.53 458.25 3590.53 440.25C3571.03 421.75 3545.78 412.5 3514.78 412.5C3483.78 412.5 3458.28 421.75 3438.28 440.25C3418.28 458.25 3408.28 482 3408.28 511.5C3408.28 541 3418.28 565 3438.28 583.5C3458.28 601.5 3483.78 610.5 3514.78 610.5ZM4008.18 316.5C4070.68 316.5 4118.68 331.5 4152.18 361.5C4185.68 391 4202.43 435.75 4202.43 495.75V726H4092.93V675.75C4070.93 713.25 4029.93 732 3969.93 732C3938.93 732 3911.93 726.75 3888.93 716.25C3866.43 705.75 3849.18 691.25 3837.18 672.75C3825.18 654.25 3819.18 633.25 3819.18 609.75C3819.18 572.25 3833.18 542.75 3861.18 521.25C3889.68 499.75 3933.43 489 3992.43 489H4085.43C4085.43 463.5 4077.68 444 4062.18 430.5C4046.68 416.5 4023.43 409.5 3992.43 409.5C3970.93 409.5 3949.68 413 3928.68 420C3908.18 426.5 3890.68 435.5 3876.18 447L3834.18 365.25C3856.18 349.75 3882.43 337.75 3912.93 329.25C3943.93 320.75 3975.68 316.5 4008.18 316.5ZM3999.18 653.25C4019.18 653.25 4036.93 648.75 4052.43 639.75C4067.93 630.25 4078.93 616.5 4085.43 598.5V557.25H4005.18C3957.18 557.25 3933.18 573 3933.18 604.5C3933.18 619.5 3938.93 631.5 3950.43 640.5C3962.43 649 3978.68 653.25 3999.18 653.25ZM4420.57 375.75C4434.57 356.25 4453.32 341.5 4476.82 331.5C4500.82 321.5 4528.32 316.5 4559.32 316.5V424.5C4546.32 423.5 4537.57 423 4533.07 423C4499.57 423 4473.32 432.5 4454.32 451.5C4435.32 470 4425.82 498 4425.82 535.5V726H4308.82V322.5H4420.57V375.75ZM5204.86 331.5V726H5153.86V654C5139.86 678 5120.61 696.75 5096.11 710.25C5071.61 723.25 5043.61 729.75 5012.11 729.75C4960.61 729.75 4919.86 715.5 4889.86 687C4860.36 658 4845.61 615.75 4845.61 560.25V331.5H4898.86V555C4898.86 596.5 4909.11 628 4929.61 649.5C4950.11 671 4979.36 681.75 5017.36 681.75C5058.86 681.75 5091.61 669.25 5115.61 644.25C5139.61 618.75 5151.61 583.5 5151.61 538.5V331.5H5204.86ZM5555.5 328.5C5605 328.5 5644.25 343 5673.25 372C5702.75 400.5 5717.5 442.25 5717.5 497.25V726H5664.25V502.5C5664.25 461.5 5654 430.25 5633.5 408.75C5613 387.25 5583.75 376.5 5545.75 376.5C5503.25 376.5 5469.5 389.25 5444.5 414.75C5420 439.75 5407.75 474.5 5407.75 519V726H5354.5V331.5H5405.5V404.25C5420 380.25 5440 361.75 5465.5 348.75C5491.5 335.25 5521.5 328.5 5555.5 328.5ZM6070.31 702C6060.31 711 6047.81 718 6032.81 723C6018.31 727.5 6003.06 729.75 5987.06 729.75C5950.06 729.75 5921.56 719.75 5901.56 699.75C5881.56 679.75 5871.56 651.5 5871.56 615V376.5H5801.06V331.5H5871.56V245.25H5924.81V331.5H6044.81V376.5H5924.81V612C5924.81 635.5 5930.56 653.5 5942.06 666C5954.06 678 5971.06 684 5993.06 684C6004.06 684 6014.56 682.25 6024.56 678.75C6035.06 675.25 6044.06 670.25 6051.56 663.75L6070.31 702ZM6523.25 331.5V726H6472.25V654C6458.25 678 6439 696.75 6414.5 710.25C6390 723.25 6362 729.75 6330.5 729.75C6279 729.75 6238.25 715.5 6208.25 687C6178.75 658 6164 615.75 6164 560.25V331.5H6217.25V555C6217.25 596.5 6227.5 628 6248 649.5C6268.5 671 6297.75 681.75 6335.75 681.75C6377.25 681.75 6410 669.25 6434 644.25C6458 618.75 6470 583.5 6470 538.5V331.5H6523.25ZM6819.14 528L6726.14 613.5V726H6672.89V169.5H6726.14V546.75L6961.64 331.5H7027.64L6858.89 492.75L7043.39 726H6978.14L6819.14 528Z" fill="#3B3B3B"/>
<path d="M605.75 1230.5C656.25 1230.5 696.25 1245.5 725.75 1275.5C755.75 1305 770.75 1349.5 770.75 1409V1640H653.75V1427C653.75 1395 647 1371.25 633.5 1355.75C620.5 1339.75 601.75 1331.75 577.25 1331.75C549.75 1331.75 528 1340.75 512 1358.75C496 1376.25 488 1402.5 488 1437.5V1640H371V1427C371 1363.5 345.5 1331.75 294.5 1331.75C267.5 1331.75 246 1340.75 230 1358.75C214 1376.25 206 1402.5 206 1437.5V1640H89V1236.5H200.75V1283C215.75 1266 234 1253 255.5 1244C277.5 1235 301.5 1230.5 327.5 1230.5C356 1230.5 381.75 1236.25 404.75 1247.75C427.75 1258.75 446.25 1275 460.25 1296.5C476.75 1275.5 497.5 1259.25 522.5 1247.75C548 1236.25 575.75 1230.5 605.75 1230.5ZM1275.77 1439.75C1275.77 1441.25 1275.02 1451.75 1273.52 1471.25H968.266C973.766 1496.25 986.766 1516 1007.27 1530.5C1027.77 1545 1053.27 1552.25 1083.77 1552.25C1104.77 1552.25 1123.27 1549.25 1139.27 1543.25C1155.77 1536.75 1171.02 1526.75 1185.02 1513.25L1247.27 1580.75C1209.27 1624.25 1153.77 1646 1080.77 1646C1035.27 1646 995.016 1637.25 960.016 1619.75C925.016 1601.75 898.016 1577 879.016 1545.5C860.016 1514 850.516 1478.25 850.516 1438.25C850.516 1398.75 859.766 1363.25 878.266 1331.75C897.266 1299.75 923.016 1275 955.516 1257.5C988.516 1239.5 1025.27 1230.5 1065.77 1230.5C1105.27 1230.5 1141.02 1239 1173.02 1256C1205.02 1273 1230.02 1297.5 1248.02 1329.5C1266.52 1361 1275.77 1397.75 1275.77 1439.75ZM1066.52 1319C1040.02 1319 1017.77 1326.5 999.766 1341.5C981.766 1356.5 970.766 1377 966.766 1403H1165.52C1161.52 1377.5 1150.52 1357.25 1132.52 1342.25C1114.52 1326.75 1092.52 1319 1066.52 1319ZM1870.91 1230.5C1921.41 1230.5 1961.41 1245.5 1990.91 1275.5C2020.91 1305 2035.91 1349.5 2035.91 1409V1640H1918.91V1427C1918.91 1395 1912.16 1371.25 1898.66 1355.75C1885.66 1339.75 1866.91 1331.75 1842.41 1331.75C1814.91 1331.75 1793.16 1340.75 1777.16 1358.75C1761.16 1376.25 1753.16 1402.5 1753.16 1437.5V1640H1636.16V1427C1636.16 1363.5 1610.66 1331.75 1559.66 1331.75C1532.66 1331.75 1511.16 1340.75 1495.16 1358.75C1479.16 1376.25 1471.16 1402.5 1471.16 1437.5V1640H1354.16V1236.5H1465.91V1283C1480.91 1266 1499.16 1253 1520.66 1244C1542.66 1235 1566.66 1230.5 1592.66 1230.5C1621.16 1230.5 1646.91 1236.25 1669.91 1247.75C1692.91 1258.75 1711.41 1275 1725.41 1296.5C1741.91 1275.5 1762.66 1259.25 1787.66 1247.75C1813.16 1236.25 1840.91 1230.5 1870.91 1230.5ZM2304.03 1230.5C2366.53 1230.5 2414.53 1245.5 2448.03 1275.5C2481.53 1305 2498.28 1349.75 2498.28 1409.75V1640H2388.78V1589.75C2366.78 1627.25 2325.78 1646 2265.78 1646C2234.78 1646 2207.78 1640.75 2184.78 1630.25C2162.28 1619.75 2145.03 1605.25 2133.03 1586.75C2121.03 1568.25 2115.03 1547.25 2115.03 1523.75C2115.03 1486.25 2129.03 1456.75 2157.03 1435.25C2185.53 1413.75 2229.28 1403 2288.28 1403H2381.28C2381.28 1377.5 2373.53 1358 2358.03 1344.5C2342.53 1330.5 2319.28 1323.5 2288.28 1323.5C2266.78 1323.5 2245.53 1327 2224.53 1334C2204.03 1340.5 2186.53 1349.5 2172.03 1361L2130.03 1279.25C2152.03 1263.75 2178.28 1251.75 2208.78 1243.25C2239.78 1234.75 2271.53 1230.5 2304.03 1230.5ZM2295.03 1567.25C2315.03 1567.25 2332.78 1562.75 2348.28 1553.75C2363.78 1544.25 2374.78 1530.5 2381.28 1512.5V1471.25H2301.03C2253.03 1471.25 2229.03 1487 2229.03 1518.5C2229.03 1533.5 2234.78 1545.5 2246.28 1554.5C2258.28 1563 2274.53 1567.25 2295.03 1567.25ZM2849.92 1230.5C2899.92 1230.5 2940.17 1245.5 2970.67 1275.5C3001.67 1305.5 3017.17 1350 3017.17 1409V1640H2900.17V1427C2900.17 1395 2893.17 1371.25 2879.17 1355.75C2865.17 1339.75 2844.92 1331.75 2818.42 1331.75C2788.92 1331.75 2765.42 1341 2747.92 1359.5C2730.42 1377.5 2721.67 1404.5 2721.67 1440.5V1640H2604.67V1083.5H2721.67V1278.5C2737.17 1263 2755.92 1251.25 2777.92 1243.25C2799.92 1234.75 2823.92 1230.5 2849.92 1230.5ZM3286.48 1230.5C3348.98 1230.5 3396.98 1245.5 3430.48 1275.5C3463.98 1305 3480.73 1349.75 3480.73 1409.75V1640H3371.23V1589.75C3349.23 1627.25 3308.23 1646 3248.23 1646C3217.23 1646 3190.23 1640.75 3167.23 1630.25C3144.73 1619.75 3127.48 1605.25 3115.48 1586.75C3103.48 1568.25 3097.48 1547.25 3097.48 1523.75C3097.48 1486.25 3111.48 1456.75 3139.48 1435.25C3167.98 1413.75 3211.73 1403 3270.73 1403H3363.73C3363.73 1377.5 3355.98 1358 3340.48 1344.5C3324.98 1330.5 3301.73 1323.5 3270.73 1323.5C3249.23 1323.5 3227.98 1327 3206.98 1334C3186.48 1340.5 3168.98 1349.5 3154.48 1361L3112.48 1279.25C3134.48 1263.75 3160.73 1251.75 3191.23 1243.25C3222.23 1234.75 3253.98 1230.5 3286.48 1230.5ZM3277.48 1567.25C3297.48 1567.25 3315.23 1562.75 3330.73 1553.75C3346.23 1544.25 3357.23 1530.5 3363.73 1512.5V1471.25H3283.48C3235.48 1471.25 3211.48 1487 3211.48 1518.5C3211.48 1533.5 3217.23 1545.5 3228.73 1554.5C3240.73 1563 3256.98 1567.25 3277.48 1567.25ZM4103.87 1230.5C4154.37 1230.5 4194.37 1245.5 4223.87 1275.5C4253.87 1305 4268.87 1349.5 4268.87 1409V1640H4151.87V1427C4151.87 1395 4145.12 1371.25 4131.62 1355.75C4118.62 1339.75 4099.87 1331.75 4075.37 1331.75C4047.87 1331.75 4026.12 1340.75 4010.12 1358.75C3994.12 1376.25 3986.12 1402.5 3986.12 1437.5V1640H3869.12V1427C3869.12 1363.5 3843.62 1331.75 3792.62 1331.75C3765.62 1331.75 3744.12 1340.75 3728.12 1358.75C3712.12 1376.25 3704.12 1402.5 3704.12 1437.5V1640H3587.12V1236.5H3698.87V1283C3713.87 1266 3732.12 1253 3753.62 1244C3775.62 1235 3799.62 1230.5 3825.62 1230.5C3854.12 1230.5 3879.87 1236.25 3902.87 1247.75C3925.87 1258.75 3944.37 1275 3958.37 1296.5C3974.87 1275.5 3995.62 1259.25 4020.62 1247.75C4046.12 1236.25 4073.87 1230.5 4103.87 1230.5ZM4374.24 1236.5H4491.24V1640H4374.24V1236.5ZM4432.74 1180.25C4411.24 1180.25 4393.74 1174 4380.24 1161.5C4366.74 1149 4359.99 1133.5 4359.99 1115C4359.99 1096.5 4366.74 1081 4380.24 1068.5C4393.74 1056 4411.24 1049.75 4432.74 1049.75C4454.24 1049.75 4471.74 1055.75 4485.24 1067.75C4498.74 1079.75 4505.49 1094.75 4505.49 1112.75C4505.49 1132.25 4498.74 1148.5 4485.24 1161.5C4471.74 1174 4454.24 1180.25 4432.74 1180.25Z" fill="#31AFD7"/>
<path d="M37.6765 2018.65C937.63 1936.2 2931.23 1760.4 4528.17 2011.87" stroke="#31AFD7" stroke-width="75" stroke-linecap="round"/>
</svg>
